<?xml version="1.0" encoding="UTF-8" standalone="no"?>
<!-- Created with Inkscape (http://www.inkscape.org/) -->

<svg
   width="512"
   height="512"
   viewBox="0 0 135.46667 135.46667"
   version="1.1"
   id="svg839"
   inkscape:version="1.1.1 (c3084ef, 2021-09-22)"
   sodipodi:docname="small_drawing.svg"
   xmlns:inkscape="http://www.inkscape.org/namespaces/inkscape"
   xmlns:sodipodi="http://sodipodi.sourceforge.net/DTD/sodipodi-0.dtd"
   xmlns="http://www.w3.org/2000/svg"
   xmlns:svg="http://www.w3.org/2000/svg">
  <sodipodi:namedview
     id="namedview841"
     pagecolor="#ffffff"
     bordercolor="#666666"
     borderopacity="1.0"
     inkscape:pageshadow="2"
     inkscape:pageopacity="0.0"
     inkscape:pagecheckerboard="0"
     inkscape:document-units="mm"
     showgrid="false"
     width="209mm"
     units="px"
     inkscape:zoom="0.47660634"
     inkscape:cx="397.60277"
     inkscape:cy="561.25984"
     inkscape:window-width="1312"
     inkscape:window-height="715"
     inkscape:window-x="0"
     inkscape:window-y="25"
     inkscape:window-maximized="0"
     inkscape:current-layer="layer1" />
  <defs
     id="defs836" />
  <g
     inkscape:label="Layer 1"
     inkscape:groupmode="layer"
     id="layer1">
    <path
       d="m 132.69514,63.347544 c -0.57511,-0.312976 -1.41537,-0.49549 -2.29796,-0.500361 L 98.529076,62.672628 c -0.109025,-0.138888 -0.22594,-0.274807 -0.385725,-0.402654 l 2.130189,-1.506463 c 0.25481,0.02122 0.50836,0.03235 0.76457,0.03554 l 0.006,3.1e-5 c 2.93167,-0.02045 5.48114,-1.069916 7.04599,-2.537876 0.76888,-0.743105 1.15572,-1.506078 1.16503,-2.220127 0.009,-0.808581 -0.50049,-1.618234 -1.74146,-2.15178 l 1.74847,-2.111405 c 0.0268,1.42e-4 0.0528,0.0031 0.0803,0.0031 1.64338,0.0025 3.08025,-0.390132 4.21563,-0.943269 1.14161,-0.560405 2.02581,-1.313229 2.5363,-2.184962 0.28166,-0.483416 0.42014,-0.96311 0.42549,-1.421205 0.007,-0.692941 -0.27854,-1.343629 -0.89139,-1.893241 -0.45187,-0.407806 -1.13196,-0.772249 -2.01994,-1.002444 l 0.81757,-2.047381 c 1.4611,-0.106224 2.68676,-0.53716 3.58644,-1.084981 1.05691,-0.64719 1.77059,-1.495543 2.0245,-2.448362 0.0566,-0.226994 0.0905,-0.451146 0.0923,-0.668078 0.007,-0.858704 -0.38963,-1.6538 -1.17655,-2.299878 -0.57572,-0.477877 -1.43336,-0.894352 -2.52684,-1.114587 l 0.2683,-1.767061 c 1.30401,-0.168188 2.376,-0.59718 3.13967,-1.122578 1.00527,-0.688249 1.61595,-1.582544 1.71853,-2.571493 0.007,-0.0829 0.008,-0.165936 0.009,-0.248451 0.008,-0.951434 -0.46417,-1.829483 -1.34923,-2.524415 -0.60944,-0.479153 -1.48617,-0.889193 -2.57556,-1.114042 l 0.01,-1.620963 3.48037,0.01892 0.12548,-9.637197 -45.705401,-0.251355 C 80.15169,12.601791 83.254415,10.301136 83.288707,7.6491988 83.342236,3.657166 76.415377,0.38357719 67.81956,0.33651891 59.225305,0.28949738 52.214758,3.4867666 52.163188,7.4787986 c -0.03364,2.6521834 3.012782,4.9864764 7.578915,6.2688104 l -45.702693,-0.250185 -0.124167,9.637168 3.478342,0.01892 -0.02122,1.621912 c -1.091676,0.211717 -1.981494,0.613065 -2.60262,1.087277 -0.905555,0.685984 -1.399945,1.556824 -1.414231,2.509286 -0.0011,0.08207 -3.89e-4,0.16604 0.0086,0.248658 0.08024,0.989985 0.664488,1.889024 1.651955,2.589937 0.751908,0.533712 1.81451,0.975348 3.110142,1.156801 l 0.224415,1.769737 c -1.098534,0.208203 -1.968373,0.615236 -2.557606,1.086849 -0.800967,0.636408 -1.218555,1.42801 -1.23158,2.286693 -0.0028,0.219694 0.02202,0.442466 0.07531,0.668997 0.227229,0.955521 0.921169,1.811595 1.960957,2.470107 0.885477,0.559377 2.099743,1.002866 3.561882,1.125864 l 0.760259,2.055563 c -0.889309,0.219695 -1.580778,0.577423 -2.041371,0.980191 -0.628003,0.544678 -0.932002,1.190311 -0.940871,1.883019 -0.0058,0.45992 0.119652,0.941027 0.388869,1.42566 0.485916,0.877155 1.352696,1.639615 2.475525,2.212395 1.120883,0.566345 2.543384,0.974721 4.190658,0.989286 0.02617,1.34e-4 0.05336,-0.0011 0.07967,-9.5e-4 l 1.689689,2.130201 c -1.254774,0.519912 -1.78831,1.321947 -1.796788,2.132405 -0.0093,0.714074 0.362345,1.482107 1.111442,2.232747 1.526387,1.482915 4.048536,2.560356 6.977356,2.614612 0.257641,0.0014 0.515385,-0.0052 0.773173,-0.02741 l 2.090894,1.528638 c -0.165305,0.126956 -0.289018,0.261687 -0.396652,0.399242 L 3.6541794,62.156421 c -0.8845747,-0.0031 -1.7274596,0.168472 -2.3105181,0.47526 -0.58308468,0.306211 -0.84991658,0.716855 -0.72936224,1.12463 L 6.4558741,83.816988 c 0.2025952,0.69971 1.4838099,1.225765 3.0033122,1.234097 l 50.3539277,0.276032 -0.618844,47.915843 13.835604,0.078 0.619224,-47.918087 50.351892,0.275801 c 1.51959,0.0031 2.81217,-0.505077 3.0389,-1.20099 l 6.35873,-19.996841 c 0.12548,-0.406366 -0.12792,-0.818699 -0.70417,-1.131565 z m -52.766631,2.390315 c 0.111527,-0.115282 0.226263,-0.226036 0.349638,-0.332187 l 3.366553,0.01993 c 0.08722,0.01993 0.169337,0.03235 0.259348,0.04429 0.124391,0.01423 0.249576,0.02304 0.371509,0.02355 0.215461,0.0012 0.421735,-0.02304 0.61326,-0.06095 l 0.05657,3.24e-4 c -0.05354,0.165702 -0.09045,0.332018 -0.09366,0.495604 -0.0053,0.273288 0.07874,0.549185 0.24728,0.813784 -0.01207,0.02381 -0.03744,0.04483 -0.05734,0.07043 -0.0077,0.0065 -0.02678,0.02741 -0.0428,0.04286 l -1.55831,0.392482 c -0.02767,-0.172743 -0.185556,-0.342414 -0.482825,-0.471148 -0.617469,-0.267873 -1.582255,-0.253006 -2.15703,0.03137 l -1.603231,0.798055 c -0.02149,-0.102393 -0.04203,-0.208125 -0.0413,-0.32209 0.0059,-0.460942 0.251459,-1.004818 0.772263,-1.545431 m 8.764825,-9.480901 c 0.07715,0.0036 0.151234,0.0041 0.223732,0.0044 0.744385,0.0031 1.397,-0.246483 1.513361,-0.598225 l 0.163921,-0.498055 c 0.358966,0.327437 0.605007,0.799957 0.596595,1.339632 -0.0032,0.257872 -0.05887,0.530068 -0.180287,0.808659 -0.298181,0.694859 -0.927616,1.289562 -1.639135,1.674245 -0.140992,0.0761 -0.285722,0.142097 -0.420208,0.199661 l 0.243365,-0.44286 c 0.208809,-0.379012 -0.28113,-0.765748 -1.099246,-0.864761 -0.815491,-0.09913 -1.645101,0.128328 -1.855665,0.505456 l -0.308427,0.556478 c -0.357821,-0.329451 -0.598278,-0.799869 -0.592085,-1.337748 0.0035,-0.257043 0.05887,-0.530075 0.182288,-0.807665 0.294587,-0.696709 0.92306,-1.289585 1.637175,-1.675207 0.145348,-0.07928 0.291844,-0.144712 0.432364,-0.205356 l -0.176372,0.526732 c -0.125479,0.385257 0.447733,0.748983 1.27928,0.809161 z m -0.08686,-8.768837 c 0.159329,-0.734587 0.703251,-1.37335 1.368979,-1.787017 0.138607,-0.08495 0.278245,-0.157006 0.412028,-0.221222 l -0.07715,0.505927 c -0.0581,0.389215 0.57144,0.730161 1.409922,0.759794 0.03058,0.0014 0.07188,0.0016 0.104493,0.0018 0.79682,0.0031 1.471275,-0.279365 1.528078,-0.653819 l 0.0581,-0.392836 0.0017,0.0012 c 0.482065,0.38569 0.820418,0.973617 0.809804,1.638506 -0.0018,0.140104 -0.01442,0.281775 -0.04739,0.428107 -0.160419,0.73262 -0.704396,1.372374 -1.370904,1.784195 -0.146584,0.09163 -0.297648,0.168912 -0.439552,0.236855 L 92.52048,49.32104 c 0.12548,-0.385928 -0.445898,-0.74991 -1.277216,-0.810106 -0.831965,-0.06204 -1.612111,0.202638 -1.736934,0.588651 l -0.146025,0.44336 c -0.478238,-0.385615 -0.808824,-0.969804 -0.797386,-1.627244 -0.0062,-0.136248 0.0077,-0.279759 0.04359,-0.426215 m 1.542354,-9.361974 c 0.07715,-0.754457 0.561576,-1.418617 1.194228,-1.84824 0.09304,-0.06116 0.185585,-0.117871 0.279364,-0.169042 l -0.03824,0.635049 c -0.01972,0.390253 0.645757,0.717652 1.484245,0.729651 l 0.02982,1.73e-4 c 0.826761,0.0036 1.509499,-0.298749 1.534448,-0.685316 l 0.03058,-0.610923 c 0.05275,0.03587 0.111615,0.07118 0.162302,0.111219 0.544145,0.420264 0.930406,1.066047 0.919333,1.787483 -7.71e-4,0.06098 -0.0032,0.123384 -0.0077,0.187496 -0.07715,0.750805 -0.561197,1.415842 -1.194208,1.845484 -0.104669,0.06704 -0.199331,0.12504 -0.300018,0.179136 l 0.09228,-0.601386 c 0.0581,-0.389189 -0.57144,-0.730179 -1.409928,-0.759802 -0.83999,-0.02971 -1.572937,0.262218 -1.627918,0.651399 l -0.09487,0.619038 c -0.04509,-0.03168 -0.09228,-0.06334 -0.142817,-0.101021 -0.544145,-0.420241 -0.930395,-1.065095 -0.919148,-1.787483 -10e-4,-0.05407 0.0015,-0.11681 0.0068,-0.18276 m 0.540246,-9.231164 c 0.02679,-0.764011 0.486268,-1.441275 1.101026,-1.877511 0.07264,-0.04804 0.13381,-0.08914 0.199331,-0.130554 l -0.0077,0.613116 c -0.005,0.390369 0.671906,0.712263 1.516367,0.716846 0.840495,0.0044 1.529661,-0.307802 1.534736,-0.700157 l 0.0077,-0.658411 c 0.08722,0.05319 0.175989,0.110365 0.26135,0.175745 0.581683,0.439064 0.997502,1.114632 0.983971,1.867601 l -8.68e-4,0.06468 c -0.02679,0.754734 -0.485883,1.432956 -1.100789,1.870072 -0.07644,0.05221 -0.146643,0.0974 -0.219493,0.140674 l 0.03135,-0.609116 c 0.01972,-0.390574 -0.643539,-0.718848 -1.484262,-0.72998 -0.840489,-0.0132 -1.541382,0.294789 -1.56244,0.685153 l -0.03824,0.659177 c -0.08027,-0.05055 -0.164304,-0.104697 -0.24154,-0.164616 -0.58184,-0.439058 -0.997735,-1.114619 -0.984095,-1.867598 l 7.94e-4,-0.05402 z m 1.438567,36.576399 2.052662,0.0052 c -0.04739,0.03036 -0.09045,0.06108 -0.141375,0.091 -0.677866,0.404411 -1.472944,0.711531 -2.236492,0.923507 z m 8.167291,-8.967065 c 0.80154,-0.806039 2.0647,-1.349933 3.10425,-1.595563 l -0.24319,0.29548 c -0.30239,0.363632 0.0937,0.775839 0.88079,0.918312 0.17707,0.03103 0.35751,0.04762 0.53893,0.04869 0.61916,0.0031 1.20226,-0.168524 1.43363,-0.452147 l 0.11821,-0.141321 c 0.0543,0.132935 0.0872,0.280784 0.0865,0.450146 -0.004,0.475887 -0.27913,1.051071 -0.86747,1.617256 -0.72351,0.724938 -1.82519,1.243834 -2.79717,1.517666 l 0.30813,-0.220006 c 0.46172,-0.32582 0.26552,-0.765499 -0.44032,-0.982644 -0.70409,-0.2162 -1.64975,-0.12781 -2.1093,0.199196 l -0.73965,0.520858 c -0.08639,-0.157265 -0.13899,-0.341029 -0.135694,-0.556215 0.0062,-0.480393 0.282984,-1.054746 0.872064,-1.620007 m 7.44447,-8.916072 c 0.38458,-0.663784 1.07022,-1.222916 1.80975,-1.585208 0.11841,-0.05635 0.23053,-0.106379 0.34542,-0.153977 l -0.12804,0.32011 c -0.15053,0.385177 0.39804,0.754242 1.2252,0.828376 0.0897,0.0049 0.17723,0.01475 0.26915,0.01475 0.72718,0.0031 1.37092,-0.232792 1.50511,-0.575045 l 0.17187,-0.424897 c 0.31821,0.289206 0.53374,0.715169 0.52573,1.205703 -0.004,0.332159 -0.11153,0.693131 -0.31791,1.061989 -0.38565,0.663678 -1.07226,1.222913 -1.81172,1.584247 -0.24743,0.121753 -0.4959,0.217132 -0.73063,0.292702 l 0.34873,-0.421812 c 0.30246,-0.363782 -0.0937,-0.775779 -0.8807,-0.918319 -0.78894,-0.142383 -1.66593,0.03942 -1.96813,0.402907 l -0.35094,0.426504 c -0.20828,-0.269951 -0.3374,-0.612059 -0.33121,-0.995958 -5e-5,-0.332762 0.10688,-0.693135 0.31791,-1.061067 m 3.70557,-9.341788 c 0.18665,-0.727899 0.7502,-1.357297 1.4226,-1.764429 0.0795,-0.04804 0.15506,-0.08914 0.23356,-0.130346 l -0.0795,0.510609 c -0.0581,0.389184 0.57335,0.730192 1.412,0.759815 0.0306,0.0014 0.0719,0.0016 0.10453,0.0018 0.79689,0.0036 1.47128,-0.280458 1.52805,-0.65383 l 0.0919,-0.591138 c 0.0443,0.03103 0.0913,0.06603 0.13814,0.101772 0.46287,0.3736 0.78423,0.944661 0.77155,1.589149 -0.002,0.165987 -0.0206,0.334654 -0.0749,0.505934 -0.18655,0.726059 -0.75272,1.356387 -1.4246,1.763526 -0.16024,0.09732 -0.31936,0.180042 -0.48014,0.249537 l 0.18456,-0.467335 c 0.15497,-0.385099 -0.39796,-0.754372 -1.22315,-0.828503 -0.82963,-0.07444 -1.6218,0.178437 -1.77649,0.563407 l -0.17717,0.441427 c -0.43741,-0.373479 -0.73949,-0.924027 -0.72703,-1.546238 0.008,-0.163115 0.0291,-0.33198 0.0787,-0.505052 m 1.46701,-9.250695 c 0.0764,-0.753578 0.56119,-1.418617 1.19781,-1.846364 0.15072,-0.101099 0.30017,-0.187522 0.45217,-0.259122 l -0.008,0.733559 c -0.005,0.390382 0.67199,0.712258 1.51638,0.716847 0.84051,0.0044 1.52765,-0.307837 1.53272,-0.700184 l 0.006,-0.465805 c 0.53566,0.420233 0.91684,1.057609 0.90215,1.773472 -7.9e-4,0.06253 -0.004,0.126128 -0.008,0.189101 -0.0764,0.753578 -0.56119,1.416764 -1.19783,1.846369 -0.11836,0.07902 -0.23371,0.146239 -0.35254,0.208643 l 0.093,-0.627331 c 0.0581,-0.389186 -0.57144,-0.730174 -1.41195,-0.758932 -0.83775,-0.03114 -1.5689,0.261293 -1.62588,0.651425 l -0.0913,0.582812 c -0.0298,-0.02252 -0.0589,-0.04418 -0.10214,-0.06802 -0.54414,-0.419363 -0.93043,-1.063228 -0.91582,-1.785598 7.8e-4,-0.05782 0.003,-0.120589 0.008,-0.186254 m 1.67224,-3.757678 c -1.24268,0.179547 -2.26425,0.598714 -2.9996,1.105725 -1.00536,0.688262 -1.61196,1.581643 -1.71864,2.569588 -0.007,0.08205 -0.008,0.165962 -0.009,0.250314 -0.008,0.951453 0.46417,1.827651 1.34926,2.524436 0.58375,0.460365 1.41669,0.857225 2.44412,1.086362 l -0.27922,1.828342 c -1.17008,0.170801 -2.16567,0.548278 -2.93049,1.013325 -1.05683,0.6471 -1.76856,1.4936 -2.0205,2.448278 -0.0566,0.22601 -0.0905,0.450255 -0.0923,0.66815 -0.008,0.858714 0.38794,1.653803 1.17243,2.299857 0.46815,0.386505 1.12078,0.729545 1.92847,0.963907 l -0.84891,2.126545 c -1.24381,0.116473 -2.3422,0.453658 -3.24853,0.896622 -1.14162,0.56035 -2.02386,1.313242 -2.53627,2.184954 -0.28142,0.482609 -0.42021,0.961273 -0.42548,1.421229 -0.007,0.692726 0.27854,1.341596 0.89138,1.893048 0.29337,0.265961 0.68643,0.51196 1.16716,0.714966 l -1.7349,2.107673 c -0.0306,-1.89e-4 -0.0726,-0.0031 -0.10458,-0.0031 -2.92976,0.01993 -5.481158,1.069864 -7.045991,2.537801 -0.768884,0.741361 -1.155693,1.505317 -1.165021,2.220287 -0.0077,0.699182 0.372651,1.399621 1.277131,1.921117 l -1.896478,1.340877 c -0.495979,-0.07734 -1.010528,-0.116033 -1.52412,-0.119243 -2.160701,0.0025 -4.319945,0.516909 -6.11639,1.367772 l -1.06204,-0.0031 0.928819,-1.684605 c 1.472751,-0.08132 2.72797,-0.479208 3.70327,-1.007254 1.103809,-0.601427 1.915173,-1.400998 2.308375,-2.314198 0.156974,-0.36437 0.232974,-0.725795 0.238155,-1.074462 0.0077,-0.769699 -0.323948,-1.485601 -1.017751,-2.081999 -0.472275,-0.410514 -1.17006,-0.773352 -2.055775,-1.005416 l 0.637956,-1.944023 c 1.409401,-0.124834 2.593051,-0.5524 3.454751,-1.093962 1.042714,-0.657344 1.734941,-1.516987 1.951056,-2.481185 0.04203,-0.190731 0.07264,-0.378937 0.07338,-0.563492 0.0085,-0.883047 -0.405146,-1.697703 -1.217549,-2.355961 -0.555307,-0.452786 -1.360867,-0.844817 -2.370375,-1.073923 l 0.290401,-1.89872 c 1.282429,-0.17119 2.338124,-0.598543 3.091634,-1.118385 1.005371,-0.690037 1.611997,-1.583491 1.71666,-2.572445 0.0074,-0.08197 0.0077,-0.163063 0.0085,-0.244724 0.0077,-0.95329 -0.464171,-1.830412 -1.353146,-2.525157 -0.625849,-0.495395 -1.539693,-0.918646 -2.673118,-1.136317 l 0.09472,-1.706797 c 1.198311,-0.193734 2.184655,-0.615779 2.879979,-1.116498 0.979942,-0.70689 1.544576,-1.617266 1.587469,-2.61946 l 9.65e-4,-0.07447 c 0.01001,-0.990839 -0.494524,-1.901531 -1.427821,-2.616949 -0.66808,-0.515547 -1.638879,-0.953066 -2.842185,-1.162737 l 0.01148,-1.556462 19.520419,0.106842 -0.0121,1.555126 z m -40.139658,-1.775488 17.587236,0.09627 -0.01531,1.578348 c -1.15662,0.201427 -2.106606,0.610745 -2.785827,1.09854 -0.982017,0.706856 -1.544579,1.617272 -1.587427,2.61946 -1.59e-4,0.01372 -0.0023,0.03965 -0.0027,0.07369 -0.0077,0.990419 0.498807,1.901106 1.431974,2.616532 0.648738,0.500566 1.591483,0.927759 2.746855,1.14367 l -0.09366,1.694741 c -1.195994,0.187315 -2.185944,0.597337 -2.903158,1.090486 -1.005376,0.68823 -1.611967,1.582575 -1.716589,2.572461 -0.0056,0.07868 -0.0077,0.160397 -0.0085,0.244594 -0.0077,0.9533 0.464168,1.82949 1.349257,2.527036 0.59522,0.466945 1.446494,0.868537 2.495905,1.095005 l -0.293375,1.877356 c -1.267994,0.159284 -2.331933,0.561275 -3.125145,1.061442 -1.042882,0.657355 -1.734948,1.516993 -1.951109,2.482148 -0.04203,0.188739 -0.05887,0.377084 -0.07265,0.56347 -0.0077,0.88096 0.405529,1.695611 1.217871,2.355725 0.498038,0.407051 1.197922,0.767963 2.071826,1.004585 l -0.64759,1.968091 c -1.301515,0.124601 -2.428559,0.494831 -3.313383,0.975094 -1.103811,0.603304 -1.911151,1.401009 -2.30639,2.315115 -0.154826,0.363694 -0.233269,0.724886 -0.238214,1.074466 -0.0077,0.769692 0.326394,1.485631 1.017774,2.081063 0.412255,0.357224 0.9939,0.679653 1.719509,0.909936 l -1.075651,1.947147 c -0.305599,0.0036 -0.607833,0.02741 -0.903342,0.05772 l -9.105041,-0.05109 z m 2.497889,41.919796 c -0.543989,0.634296 -0.828872,1.273409 -0.836899,1.878001 -0.0071,0.538857 0.191678,1.052745 0.659673,1.506945 0.0077,0.0049 0.01148,0.01967 0.02914,0.02772 l -0.451939,0.226268 c -0.185202,0.06106 -0.336793,0.136171 -0.443985,0.222206 l -2.058016,1.027377 0.0581,-4.905779 z m -19.913515,-0.109096 3.038997,0.01682 -0.06116,4.908168 -2.030839,-1.049663 c -0.106141,-0.08844 -0.25558,-0.166583 -0.444215,-0.22865 l -0.450373,-0.2323 c 0.0065,-0.0039 0.0259,-0.01967 0.03364,-0.02772 0.478777,-0.451342 0.693694,-0.962562 0.700423,-1.501329 0.0077,-0.601833 -0.257582,-1.245961 -0.782819,-1.88503 z m -2.989466,0.318821 c 0.508135,0.545268 0.736665,1.091868 0.726954,1.551818 -0.0015,0.113885 -0.02149,0.220497 -0.04739,0.321529 L 53.14585,66.656772 c -0.563487,-0.292045 -1.527522,-0.317173 -2.151877,-0.05772 -0.299099,0.124652 -0.461036,0.292506 -0.493376,0.465557 L 48.952388,66.65551 c -0.01089,-0.01372 -0.02767,-0.02741 -0.04283,-0.04281 -0.02384,-0.02645 -0.0367,-0.04708 -0.05887,-0.07177 0.175312,-0.262481 0.264676,-0.535303 0.266088,-0.80908 0.0021,-0.163115 -0.03364,-0.330301 -0.07715,-0.496549 l 0.0612,3.23e-4 c 0.191384,0.04175 0.396275,0.0667 0.611886,0.06844 0.119504,6.47e-4 0.245867,-0.0031 0.369439,-0.02019 0.09304,-0.0041 0.178226,-0.02645 0.260113,-0.04214 l 3.36648,0.01993 c 0.121947,0.106768 0.23892,0.220031 0.342757,0.337657 z m -12.201783,-0.401476 0.298261,1.02826 c -0.76205,-0.222127 -1.542631,-0.53622 -2.208318,-0.947862 -0.05198,-0.03036 -0.08739,-0.06181 -0.136488,-0.09287 l 2.04666,0.0049 z m 3.115685,-6.687894 0.233799,0.446339 c -0.138931,-0.06103 -0.278068,-0.126723 -0.418757,-0.205537 -0.705853,-0.392561 -1.319113,-0.992114 -1.593611,-1.691941 -0.11453,-0.279561 -0.162538,-0.553582 -0.159241,-0.810442 0.0053,-0.542564 0.258641,-1.011283 0.626332,-1.335726 l 0.151323,0.500721 c 0.106583,0.352948 0.757075,0.610579 1.497699,0.614651 0.07418,4.06e-4 0.149705,-0.0015 0.223644,-0.0031 0.833314,-0.05109 1.417037,-0.408591 1.29828,-0.796054 l -0.15846,-0.527735 c 0.143052,0.06194 0.284014,0.129466 0.426783,0.210092 0.701721,0.392523 1.319143,0.992107 1.593694,1.69193 0.110262,0.279034 0.162538,0.551691 0.15933,0.809594 -0.0053,0.538645 -0.262616,1.006622 -0.624272,1.330177 L 47.920598,58.18373 c -0.198713,-0.381222 -1.02234,-0.615776 -1.842313,-0.525797 -0.816012,0.09305 -1.318148,0.475017 -1.11933,0.855385 z m -3.076814,-9.463223 0.14373,0.470938 c -0.144966,-0.0705 -0.29361,-0.148102 -0.438252,-0.242575 -0.653556,-0.419982 -1.182407,-1.064626 -1.322737,-1.800813 -0.02914,-0.146471 -0.0413,-0.288641 -0.04053,-0.426923 0.0068,-0.663021 0.359579,-1.249081 0.85163,-1.629395 9e-6,-0.0012 0.0018,-0.0012 0.0018,-0.0026 l 0.05275,0.395302 c 0.04892,0.374806 0.712273,0.666109 1.510974,0.670385 0.03364,1.94e-4 0.06499,3.57e-4 0.100784,-6.97e-4 0.838844,-0.01967 1.482145,-0.354547 1.431285,-0.744259 l -0.06423,-0.506695 c 0.136783,0.06623 0.26965,0.139716 0.406448,0.225854 0.649733,0.419944 1.182392,1.064613 1.322563,1.801752 0.02914,0.143884 0.03824,0.285771 0.03744,0.426922 -0.0068,0.658359 -0.351399,1.238937 -0.839645,1.618322 l -0.133957,-0.443029 c -0.114913,-0.389267 -0.884094,-0.662329 -1.721469,-0.609471 -0.833299,0.05262 -1.415035,0.407802 -1.298262,0.795078 z M 40.381855,39.99772 c -0.09916,-0.05443 -0.196328,-0.114195 -0.295125,-0.182423 -0.621517,-0.437 -1.094022,-1.106429 -1.146206,-1.861611 -0.0035,-0.06471 -0.0047,-0.125119 -0.0038,-0.184623 0.0077,-0.72338 0.407057,-1.364739 0.96556,-1.779006 0.05354,-0.03991 0.108967,-0.07537 0.165069,-0.110365 l 0.01825,0.613079 c 0.01207,0.386813 0.689949,0.697494 1.516554,0.70205 l 0.03058,1.7e-4 c 0.840831,-0.0026 1.515825,-0.323741 1.502926,-0.713275 l -0.01972,-0.635367 c 0.09198,0.0528 0.178285,0.108631 0.273418,0.172225 0.621367,0.435528 1.094018,1.105876 1.150188,1.861079 9.66e-4,0.06194 0.0028,0.12341 0.002,0.186357 -0.0077,0.721516 -0.409043,1.362867 -0.967541,1.777153 -0.04739,0.03505 -0.09375,0.06652 -0.14105,0.09753 l -0.07788,-0.621613 c -0.05275,-0.389741 -0.771557,-0.6904 -1.610548,-0.669062 -0.841017,0.02096 -1.484295,0.354428 -1.43141,0.744265 z m -0.477367,-9.318226 c -0.07108,-0.04418 -0.144435,-0.09261 -0.217816,-0.144919 -0.603246,-0.443544 -1.043776,-1.124752 -1.049954,-1.88896 l 7.12e-4,-0.05523 c 0.0077,-0.753939 0.435729,-1.423936 1.032385,-1.856549 0.08877,-0.0652 0.179286,-0.121391 0.267825,-0.173855 l -0.0085,0.65936 c -0.005,0.38951 0.675727,0.711316 1.51642,0.715882 0.840607,0.0044 1.529585,-0.309768 1.534615,-0.699179 l 0.0077,-0.613647 c 0.06499,0.04061 0.130719,0.08275 0.196123,0.13089 0.60317,0.444719 1.043738,1.12694 1.052012,1.891137 l -6.97e-4,0.05402 c -0.0077,0.753943 -0.435803,1.423939 -1.032383,1.856559 -0.08027,0.05909 -0.165216,0.112177 -0.245719,0.161898 l -0.01913,-0.660354 c -0.01207,-0.390209 -0.704246,-0.704695 -1.54503,-0.700937 -0.840728,0.0036 -1.515821,0.323718 -1.502923,0.713278 z m 11.773675,25.671613 c -0.36959,-0.919448 -1.157771,-1.726877 -2.246224,-2.34122 -0.876302,-0.48976 -1.989618,-0.872408 -3.285702,-1.011203 l -0.595526,-1.974891 c 0.875602,-0.225544 1.585034,-0.579281 2.093511,-0.981785 0.829275,-0.649191 1.264859,-1.461124 1.278302,-2.342056 0.0024,-0.184546 -0.01089,-0.372081 -0.05504,-0.562377 -0.189529,-0.967345 -0.85742,-1.835325 -1.885161,-2.504042 -0.780292,-0.506939 -1.835192,-0.921631 -3.096985,-1.095502 l -0.239244,-1.880219 c 1.057151,-0.215941 1.916888,-0.608029 2.521807,-1.067517 0.907424,-0.686025 1.399938,-1.556842 1.418232,-2.51 0.0011,-0.08026 3.53e-4,-0.162364 -0.0029,-0.242964 -0.07883,-0.990833 -0.663955,-1.891747 -1.64944,-2.59084 -0.706538,-0.500993 -1.683537,-0.920914 -2.875069,-1.122192 l -0.05198,-1.696471 c 1.166804,-0.204113 2.112722,-0.620021 2.774055,-1.112525 0.953722,-0.706123 1.480506,-1.610189 1.499312,-2.600469 l 8.66e-4,-0.06761 7.6e-5,-0.0036 C 47.260403,27.641677 46.722447,26.72433 45.761175,26.006914 45.0986,25.511786 44.157494,25.091141 43.008056,24.878042 l 0.02149,-1.580432 17.58926,0.09629 -0.504768,39.0704 -9.111099,-0.05109 c -0.295125,-0.03137 -0.592235,-0.05575 -0.895732,-0.06685 l -1.025939,-1.958632 c 0.733757,-0.222308 1.320897,-0.537987 1.740781,-0.890966 0.706769,-0.58774 1.059268,-1.299982 1.071151,-2.069633 0.0047,-0.351392 -0.06805,-0.711657 -0.213489,-1.077891 m -33.842467,-26.326807 0.07708,0.628267 c -0.117529,-0.06253 -0.233893,-0.130528 -0.348591,-0.211878 -0.621365,-0.435535 -1.093984,-1.105852 -1.15021,-1.859212 -9.25e-4,-0.06437 -0.0044,-0.128043 -0.0038,-0.189179 0.0076,-0.716833 0.400843,-1.35087 0.94942,-1.766111 l -0.0061,0.468205 c -0.0049,0.390364 0.671784,0.711295 1.514384,0.715866 0.840596,0.0044 1.529606,-0.307803 1.534659,-0.699179 l 0.0096,-0.731624 c 0.148815,0.07441 0.295477,0.16107 0.445912,0.263911 0.621391,0.435561 1.09399,1.105878 1.152045,1.859243 9.33e-4,0.06253 0.0027,0.12618 0.0019,0.189179 -0.0076,0.721498 -0.40701,1.361969 -0.965496,1.776234 -0.03134,0.02407 -0.06569,0.04353 -0.09799,0.06517 l -0.07188,-0.582809 c -0.04882,-0.391095 -0.771937,-0.691855 -1.610905,-0.67141 -0.839023,0.02143 -1.482283,0.355376 -1.429398,0.746149 z m 2.762144,8.76195 c -0.831606,0.06538 -1.385367,0.428295 -1.244597,0.814857 l 0.173676,0.470193 c -0.158759,-0.07148 -0.319427,-0.155712 -0.477969,-0.254758 -0.66364,-0.41448 -1.208562,-1.049938 -1.378824,-1.779793 -0.04091,-0.171718 -0.05856,-0.341479 -0.05621,-0.506667 0.0067,-0.644537 0.341296,-1.210241 0.813255,-1.580452 0.04871,-0.03637 0.09395,-0.07027 0.145095,-0.101151 l 0.07606,0.593067 c 0.04763,0.374987 0.712254,0.66698 1.510962,0.671352 0.03449,1.89e-4 0.06612,3.7e-4 0.100722,-6.94e-4 0.83895,-0.01993 1.482201,-0.353685 1.431302,-0.744259 l -0.06551,-0.509568 c 0.074,0.0402 0.150619,0.08288 0.227906,0.131123 0.66366,0.414508 1.212548,1.05179 1.382837,1.779805 0.04091,0.171708 0.05588,0.340682 0.05353,0.505756 -0.0064,0.622294 -0.31875,1.169535 -0.764796,1.538064 L 22.361088,39.36764 c -0.140819,-0.386582 -0.928141,-0.647796 -1.759682,-0.583702 z m 6.037732,10.416024 -0.337865,-0.428366 c -0.292845,-0.366935 -1.16904,-0.558171 -1.961491,-0.424312 -0.792535,0.133737 -1.195178,0.539662 -0.90235,0.908549 l 0.33788,0.427566 c -0.236686,-0.07823 -0.479037,-0.17492 -0.723071,-0.30076 -0.733974,-0.369301 -1.405648,-0.936027 -1.770456,-1.604817 -0.204905,-0.369184 -0.296063,-0.73234 -0.291766,-1.065322 0.0064,-0.491476 0.231512,-0.914983 0.556692,-1.201621 l 0.158238,0.427488 c 0.127763,0.343868 0.76911,0.58754 1.491997,0.591498 0.08828,4.81e-4 0.177717,-0.0017 0.269689,-0.01242 0.8316,-0.06535 1.385361,-0.42819 1.2446,-0.814865 l -0.1207,-0.32318 c 0.113662,0.04869 0.228401,0.09861 0.341395,0.157834 0.730156,0.371048 1.40568,0.936953 1.770473,1.606649 0.204877,0.369197 0.294013,0.731457 0.289663,1.063482 -5.5e-4,0.383044 -0.139773,0.723496 -0.354317,0.991265 z m 7.953527,9.122658 -0.719996,-0.52895 c -0.45105,-0.330631 -1.394287,-0.43055 -2.103839,-0.221817 -0.709568,0.208358 -0.918866,0.645027 -0.465923,0.977708 l 0.308495,0.225596 c -0.966708,-0.284746 -2.056226,-0.815621 -2.761585,-1.549336 -0.573734,-0.572469 -0.831853,-1.14895 -0.825668,-1.626493 0.0022,-0.167825 0.03908,-0.316179 0.09345,-0.449411 l 0.116629,0.144375 c 0.225869,0.285769 0.80472,0.464667 1.421725,0.467804 0.177844,9.57e-4 0.357521,-0.01424 0.539671,-0.04377 0.788546,-0.132986 1.195173,-0.538816 0.902326,-0.906677 l -0.241717,-0.298946 c 1.033021,0.25707 2.279876,0.815606 3.064142,1.628608 0.571679,0.570572 0.829835,1.148003 0.823633,1.625585 -0.0047,0.216148 -0.06178,0.397324 -0.15097,0.555585 z M 29.657839,46.801044 C 29.167965,45.923793 28.301137,45.1614 27.178314,44.588626 26.285577,44.135767 25.193837,43.787659 23.953425,43.656565 L 23.16234,41.520133 c 0.813616,-0.226398 1.472973,-0.562287 1.951172,-0.943582 0.800991,-0.636415 1.218562,-1.428004 1.23171,-2.286687 0.0028,-0.217883 -0.0221,-0.441571 -0.07531,-0.66813 -0.227034,-0.957354 -0.920966,-1.813448 -1.960719,-2.471963 -0.748722,-0.472454 -1.732181,-0.861706 -2.899978,-1.045273 l -0.233951,-1.831929 c 1.037214,-0.217831 1.876894,-0.605501 2.471846,-1.059452 0.905417,-0.685991 1.399963,-1.556829 1.418241,-2.509273 0.001,-0.08044 3.55e-4,-0.163244 -0.009,-0.247674 -0.08064,-0.990903 -0.66855,-1.889969 -1.651989,-2.5909 -0.724173,-0.513081 -1.735096,-0.943379 -2.968638,-1.136553 l 0.02063,-1.555202 19.521907,0.106845 -0.0206,1.556974 c -1.204604,0.195554 -2.188679,0.625174 -2.874154,1.133319 -0.953718,0.70612 -1.480547,1.610186 -1.497366,2.600484 l -9.48e-4,0.07369 c 0.01383,1.001663 0.556364,1.91718 1.517573,2.635494 0.682353,0.510094 1.657234,0.941115 2.85267,1.149809 l 0.05275,1.705757 c -1.143353,0.204968 -2.067216,0.6172 -2.708522,1.106231 -0.905387,0.685911 -1.399961,1.558685 -1.418276,2.511864 -0.0011,0.08197 -3.65e-4,0.163243 0.0091,0.244852 0.07944,0.989959 0.66259,1.88993 1.647945,2.589909 0.739997,0.527974 1.784689,0.966827 3.066279,1.151906 l 0.241069,1.899688 c -1.015272,0.217883 -1.83496,0.601 -2.397902,1.048671 -0.827088,0.649311 -1.260854,1.459292 -1.278288,2.342057 -0.0024,0.186202 0.01531,0.373905 0.05313,0.564116 0.191207,0.966473 0.854906,1.832563 1.882653,2.502174 0.849632,0.550867 2.01608,0.991299 3.430008,1.131675 l 0.587652,1.949774 c -0.893569,0.222309 -1.603021,0.577273 -2.085528,0.982743 -0.708528,0.588765 -1.059144,1.300904 -1.07115,2.070552 -0.0047,0.349621 0.06499,0.71079 0.20978,1.076922 0.369595,0.918284 1.159857,1.725737 2.246235,2.339137 0.961568,0.539471 2.20824,0.953371 3.678724,1.047673 l 0.888589,1.694575 -1.062338,-0.0031 c -1.775997,-0.870361 -3.917692,-1.407878 -6.080095,-1.434555 -0.509129,-0.0028 -1.028723,0.02741 -1.526983,0.101953 l -1.8593,-1.363877 c 0.919216,-0.512467 1.323529,-1.20764 1.330637,-1.906855 0.0094,-0.714044 -0.362316,-1.482077 -1.111423,-2.232734 -1.530391,-1.485708 -4.048561,-2.563175 -6.979426,-2.614599 -0.0345,-1.86e-4 -0.06614,10e-4 -0.100696,8.39e-4 L 27.911861,50.81029 c 0.483823,-0.197669 0.884363,-0.439294 1.185146,-0.702089 0.628019,-0.544686 0.928007,-1.190342 0.940926,-1.883016 0.0094,-0.45815 -0.115678,-0.938224 -0.380971,-1.423781 M 12.145821,82.228934 7.1305169,65.005747 21.09967,65.082619 26.114962,82.305785 Z m 20.135333,0.110157 -5.017363,-17.223184 8.957199,0.04762 c 0.351054,0.332254 0.782368,0.658149 1.29933,0.972557 1.448643,0.860146 3.233794,1.481112 5.107364,1.745478 l 4.23135,14.535875 z M 53.02329,82.452847 49.139792,69.120864 c 1.150407,0.447754 2.47876,0.724844 3.918187,0.751289 0.503549,0.0026 1.012902,-0.03587 1.505134,-0.116939 l 1.01302,0.266457 1.606707,0.830419 -1.503506,-0.0036 c -0.840669,-0.0031 -1.5296,0.307795 -1.534654,0.699298 -0.005,0.392119 0.675726,0.712406 1.516343,0.716948 l 4.292974,0.02645 0.03211,0.0065 -0.132044,10.188723 -6.830729,-0.03712 z m 20.66435,0.113005 0.132279,-10.188886 0.02679,-0.0065 4.292965,0.02645 c 0.840516,0.0031 1.527581,-0.307893 1.532667,-0.700235 0.005,-0.390173 -0.671829,-0.711336 -1.51437,-0.715788 l -1.503565,-0.0036 1.625989,-0.812735 1.022001,-0.254999 c 0.486188,0.08438 0.995098,0.128975 1.489943,0.131718 l 0.0062,2.9e-5 c 1.440146,-0.0054 2.771454,-0.273224 3.933257,-0.708334 l -4.225245,13.287586 -6.821095,-0.03712 z m 27.56923,0.150768 -14.582857,-0.08195 4.606131,-14.487526 c 1.878229,-0.243817 3.677285,-0.846942 5.151748,-1.689327 0.525563,-0.307859 0.964954,-0.631785 1.326431,-0.959067 l 8.957137,0.04762 z m 20.1334,0.109977 -13.96949,-0.07944 5.45747,-17.165858 13.9712,0.07685 z"
       id="path265"
       style="stroke-width:0.348361"
       inkscape:export-filename="/Users/matthewmckenna/Documents/job/cafe_disque/vuepage/cafe_disque/public/path265.png"
       inkscape:export-xdpi="96"
       inkscape:export-ydpi="96"
       inkscape:transform-center-x="254.66634"
       inkscape:transform-center-y="-3.6659165" />
  </g>
</svg>
