<?xml version="1.0" encoding="UTF-8" standalone="no"?>
<svg
   width="700pt"
   height="700pt"
   version="1.1"
   viewBox="0 0 700 700"
   id="svg349"
   sodipodi:docname="noun-disc-golf-basket-1299.svg"
   inkscape:version="1.1.1 (c3084ef, 2021-09-22)"
   xmlns:inkscape="http://www.inkscape.org/namespaces/inkscape"
   xmlns:sodipodi="http://sodipodi.sourceforge.net/DTD/sodipodi-0.dtd"
   xmlns="http://www.w3.org/2000/svg"
   xmlns:svg="http://www.w3.org/2000/svg">
  <sodipodi:namedview
     id="namedview351"
     pagecolor="#ffffff"
     bordercolor="#666666"
     borderopacity="1.0"
     inkscape:pageshadow="2"
     inkscape:pageopacity="0.0"
     inkscape:pagecheckerboard="0"
     inkscape:document-units="pt"
     showgrid="false"
     inkscape:zoom="0.56892857"
     inkscape:cx="466.66667"
     inkscape:cy="466.66667"
     inkscape:window-width="1312"
     inkscape:window-height="715"
     inkscape:window-x="0"
     inkscape:window-y="25"
     inkscape:window-maximized="0"
     inkscape:current-layer="g347" />
  <defs
     id="defs263">
    <symbol
       id="h"
       overflow="visible">
      <path
         d="m18.766-1.125c-0.96875 0.5-1.9805 0.875-3.0312 1.125-1.043 0.25781-2.1367 0.39062-3.2812 0.39062-3.3984 0-6.0898-0.94531-8.0781-2.8438-1.9922-1.9062-2.9844-4.4844-2.9844-7.7344 0-3.2578 0.99219-5.8359 2.9844-7.7344 1.9883-1.9062 4.6797-2.8594 8.0781-2.8594 1.1445 0 2.2383 0.13281 3.2812 0.39062 1.0508 0.25 2.0625 0.625 3.0312 1.125v4.2188c-0.98047-0.65625-1.9453-1.1406-2.8906-1.4531-0.94922-0.3125-1.9492-0.46875-3-0.46875-1.875 0-3.3516 0.60547-4.4219 1.8125-1.0742 1.1992-1.6094 2.8555-1.6094 4.9688 0 2.1055 0.53516 3.7617 1.6094 4.9688 1.0703 1.1992 2.5469 1.7969 4.4219 1.7969 1.0508 0 2.0508-0.14844 3-0.45312 0.94531-0.3125 1.9102-0.80078 2.8906-1.4688z"
         id="path197" />
    </symbol>
    <symbol
       id="c"
       overflow="visible">
      <path
         d="m13.734-11.141c-0.4375-0.19531-0.87109-0.34375-1.2969-0.4375-0.41797-0.10156-0.83984-0.15625-1.2656-0.15625-1.2617 0-2.2305 0.40625-2.9062 1.2188-0.67969 0.80469-1.0156 1.9531-1.0156 3.4531v7.0625h-4.8906v-15.312h4.8906v2.5156c0.625-1 1.3438-1.7266 2.1562-2.1875 0.82031-0.46875 1.8008-0.70312 2.9375-0.70312 0.16406 0 0.34375 0.011719 0.53125 0.03125 0.19531 0.011719 0.47656 0.039062 0.84375 0.078125z"
         id="path200" />
    </symbol>
    <symbol
       id="a"
       overflow="visible">
      <path
         d="m17.641-7.7031v1.4062h-11.453c0.125 1.1484 0.53906 2.0078 1.25 2.5781 0.70703 0.57422 1.7031 0.85938 2.9844 0.85938 1.0312 0 2.082-0.14844 3.1562-0.45312 1.082-0.3125 2.1914-0.77344 3.3281-1.3906v3.7656c-1.1562 0.4375-2.3125 0.76562-3.4688 0.98438-1.1562 0.22656-2.3125 0.34375-3.4688 0.34375-2.7734 0-4.9297-0.70312-6.4688-2.1094-1.5312-1.4062-2.2969-3.3789-2.2969-5.9219 0-2.5 0.75391-4.4609 2.2656-5.8906 1.5078-1.4375 3.582-2.1562 6.2188-2.1562 2.4062 0 4.332 0.73047 5.7812 2.1875 1.4453 1.4492 2.1719 3.3828 2.1719 5.7969zm-5.0312-1.625c0-0.92578-0.27344-1.6719-0.8125-2.2344-0.54297-0.57031-1.25-0.85938-2.125-0.85938-0.94922 0-1.7188 0.26562-2.3125 0.79688s-0.96484 1.2969-1.1094 2.2969z"
         id="path203" />
    </symbol>
    <symbol
       id="f"
       overflow="visible">
      <path
         d="m9.2188-6.8906c-1.0234 0-1.793 0.17188-2.3125 0.51562-0.51172 0.34375-0.76562 0.85547-0.76562 1.5312 0 0.625 0.20703 1.1172 0.625 1.4688 0.41406 0.34375 0.98828 0.51562 1.7188 0.51562 0.92578 0 1.7031-0.32812 2.3281-0.98438 0.63281-0.66406 0.95312-1.4922 0.95312-2.4844v-0.5625zm7.4688-1.8438v8.7344h-4.9219v-2.2656c-0.65625 0.92969-1.3984 1.6055-2.2188 2.0312-0.82422 0.41406-1.8242 0.625-3 0.625-1.5859 0-2.8711-0.45703-3.8594-1.375-0.99219-0.92578-1.4844-2.1289-1.4844-3.6094 0-1.7891 0.61328-3.1016 1.8438-3.9375 1.2383-0.84375 3.1797-1.2656 5.8281-1.2656h2.8906v-0.39062c0-0.76953-0.30859-1.332-0.92188-1.6875-0.61719-0.36328-1.5703-0.54688-2.8594-0.54688-1.0547 0-2.0312 0.10547-2.9375 0.3125-0.89844 0.21094-1.7305 0.52344-2.5 0.9375v-3.7344c1.0391-0.25 2.0859-0.44141 3.1406-0.57812 1.0625-0.13281 2.125-0.20312 3.1875-0.20312 2.7578 0 4.75 0.54688 5.9688 1.6406 1.2266 1.0859 1.8438 2.8555 1.8438 5.3125z"
         id="path206" />
    </symbol>
    <symbol
       id="b"
       overflow="visible">
      <path
         d="m7.7031-19.656v4.3438h5.0469v3.5h-5.0469v6.5c0 0.71094 0.14062 1.1875 0.42188 1.4375s0.83594 0.375 1.6719 0.375h2.5156v3.5h-4.1875c-1.9375 0-3.3125-0.39844-4.125-1.2031-0.80469-0.8125-1.2031-2.1797-1.2031-4.1094v-6.5h-2.4219v-3.5h2.4219v-4.3438z"
         id="path209" />
    </symbol>
    <symbol
       id="e"
       overflow="visible">
      <path
         d="m12.766-13.078v-8.2031h4.9219v21.281h-4.9219v-2.2188c-0.66797 0.90625-1.4062 1.5703-2.2188 1.9844s-1.7578 0.625-2.8281 0.625c-1.8867 0-3.4336-0.75-4.6406-2.25-1.2109-1.5-1.8125-3.4258-1.8125-5.7812 0-2.3633 0.60156-4.2969 1.8125-5.7969 1.207-1.5 2.7539-2.25 4.6406-2.25 1.0625 0 2 0.21484 2.8125 0.64062 0.82031 0.42969 1.5664 1.0859 2.2344 1.9688zm-3.2188 9.9219c1.0391 0 1.8359-0.37891 2.3906-1.1406 0.55078-0.76953 0.82812-1.8828 0.82812-3.3438 0-1.457-0.27734-2.5664-0.82812-3.3281-0.55469-0.76953-1.3516-1.1562-2.3906-1.1562-1.043 0-1.8398 0.38672-2.3906 1.1562-0.55469 0.76172-0.82812 1.8711-0.82812 3.3281 0 1.4609 0.27344 2.5742 0.82812 3.3438 0.55078 0.76172 1.3477 1.1406 2.3906 1.1406z"
         id="path212" />
    </symbol>
    <symbol
       id="k"
       overflow="visible">
      <path
         d="m10.5-3.1562c1.0508 0 1.8516-0.37891 2.4062-1.1406 0.55078-0.76953 0.82812-1.8828 0.82812-3.3438 0-1.457-0.27734-2.5664-0.82812-3.3281-0.55469-0.76953-1.3555-1.1562-2.4062-1.1562-1.0547 0-1.8594 0.38672-2.4219 1.1562-0.55469 0.77344-0.82812 1.8828-0.82812 3.3281 0 1.4492 0.27344 2.5586 0.82812 3.3281 0.5625 0.77344 1.3672 1.1562 2.4219 1.1562zm-3.25-9.9219c0.67578-0.88281 1.4219-1.5391 2.2344-1.9688 0.82031-0.42578 1.7656-0.64062 2.8281-0.64062 1.8945 0 3.4453 0.75 4.6562 2.25 1.207 1.5 1.8125 3.4336 1.8125 5.7969 0 2.3555-0.60547 4.2812-1.8125 5.7812-1.2109 1.5-2.7617 2.25-4.6562 2.25-1.0625 0-2.0078-0.21094-2.8281-0.625-0.8125-0.42578-1.5586-1.0859-2.2344-1.9844v2.2188h-4.8906v-21.281h4.8906z"
         id="path215" />
    </symbol>
    <symbol
       id="j"
       overflow="visible">
      <path
         d="m0.34375-15.312h4.8906l4.125 10.391 3.5-10.391h4.8906l-6.4375 16.766c-0.64844 1.6953-1.4023 2.8828-2.2656 3.5625-0.86719 0.6875-2 1.0312-3.4062 1.0312h-2.8438v-3.2188h1.5312c0.83203 0 1.4375-0.13672 1.8125-0.40625 0.38281-0.26172 0.67969-0.73047 0.89062-1.4062l0.14062-0.42188z"
         id="path218" />
    </symbol>
    <symbol
       id="i"
       overflow="visible">
      <path
         d="m16.781-19.766v4.3125c-1.125-0.5-2.2266-0.875-3.2969-1.125-1.0625-0.25781-2.0703-0.39062-3.0156-0.39062-1.25 0-2.1797 0.17969-2.7812 0.53125-0.60547 0.34375-0.90625 0.88281-0.90625 1.6094 0 0.54297 0.20312 0.96875 0.60938 1.2812 0.40625 0.30469 1.1406 0.5625 2.2031 0.78125l2.25 0.45312c2.2695 0.44922 3.8789 1.1406 4.8281 2.0781 0.95703 0.92969 1.4375 2.2461 1.4375 3.9531 0 2.25-0.66797 3.9297-2 5.0312-1.3359 1.0938-3.3711 1.6406-6.1094 1.6406-1.3047 0-2.6055-0.125-3.9062-0.375-1.3047-0.23828-2.6055-0.59766-3.9062-1.0781v-4.4531c1.3008 0.69922 2.5625 1.2266 3.7812 1.5781 1.2188 0.34375 2.3906 0.51562 3.5156 0.51562 1.1562 0 2.0352-0.1875 2.6406-0.5625 0.61328-0.38281 0.92188-0.9375 0.92188-1.6562 0-0.63281-0.21094-1.125-0.625-1.4688-0.41797-0.34375-1.2461-0.65625-2.4844-0.9375l-2.0312-0.4375c-2.043-0.4375-3.5391-1.1328-4.4844-2.0938-0.9375-0.95703-1.4062-2.25-1.4062-3.875 0-2.0312 0.65625-3.5938 1.9688-4.6875s3.1953-1.6406 5.6562-1.6406c1.125 0 2.2734 0.085938 3.4531 0.25 1.1875 0.16797 2.4141 0.42188 3.6875 0.76562z"
         id="path221" />
    </symbol>
    <symbol
       id="v"
       overflow="visible">
      <path
         d="m0.42188-15.312h4.8906l3.8281 10.578 3.7969-10.578h4.9062l-6.0312 15.312h-5.375z"
         id="path224" />
    </symbol>
    <symbol
       id="u"
       overflow="visible">
      <path
         d="m0.98438-15.312h4.7656l2.5625 10.547 2.5781-10.547h4.0938l2.5781 10.438 2.5781-10.438h4.75l-4.0312 15.312h-5.3438l-2.5781-10.531-2.5781 10.531h-5.3438z"
         id="path227" />
    </symbol>
    <symbol
       id="g"
       overflow="visible">
      <path
         d="m2.3594-21.281h4.8906v21.281h-4.8906z"
         id="path230" />
    </symbol>
    <symbol
       id="t"
       overflow="visible">
      <path
         d="m12.422-21.281v3.2188h-2.7031c-0.6875 0-1.1719 0.125-1.4531 0.375-0.27344 0.25-0.40625 0.6875-0.40625 1.3125v1.0625h4.1875v3.5h-4.1875v11.812h-4.8906v-11.812h-2.4375v-3.5h2.4375v-1.0625c0-1.6641 0.46094-2.8984 1.3906-3.7031 0.92578-0.80078 2.3672-1.2031 4.3281-1.2031z"
         id="path233" />
    </symbol>
    <symbol
       id="d"
       overflow="visible">
      <path
         d="m9.6406-12.188c-1.0859 0-1.9141 0.39062-2.4844 1.1719-0.57422 0.78125-0.85938 1.9062-0.85938 3.375s0.28516 2.5938 0.85938 3.375c0.57031 0.77344 1.3984 1.1562 2.4844 1.1562 1.0625 0 1.875-0.38281 2.4375-1.1562 0.57031-0.78125 0.85938-1.9062 0.85938-3.375s-0.28906-2.5938-0.85938-3.375c-0.5625-0.78125-1.375-1.1719-2.4375-1.1719zm0-3.5c2.6328 0 4.6914 0.71484 6.1719 2.1406 1.4766 1.418 2.2188 3.3867 2.2188 5.9062 0 2.5117-0.74219 4.4805-2.2188 5.9062-1.4805 1.418-3.5391 2.125-6.1719 2.125-2.6484 0-4.7148-0.70703-6.2031-2.125-1.4922-1.4258-2.2344-3.3945-2.2344-5.9062 0-2.5195 0.74219-4.4883 2.2344-5.9062 1.4883-1.4258 3.5547-2.1406 6.2031-2.1406z"
         id="path236" />
    </symbol>
    <symbol
       id="s"
       overflow="visible">
      <path
         d="m16.547-12.766c0.61328-0.94531 1.3477-1.6719 2.2031-2.1719 0.85156-0.5 1.7891-0.75 2.8125-0.75 1.7578 0 3.0977 0.54688 4.0156 1.6406 0.92578 1.0859 1.3906 2.6562 1.3906 4.7188v9.3281h-4.9219v-7.9844-0.35938c0.007813-0.13281 0.015625-0.32031 0.015625-0.5625 0-1.082-0.16406-1.8633-0.48438-2.3438-0.3125-0.48828-0.82422-0.73438-1.5312-0.73438-0.92969 0-1.6484 0.38672-2.1562 1.1562-0.51172 0.76172-0.77344 1.8672-0.78125 3.3125v7.5156h-4.9219v-7.9844c0-1.6953-0.14844-2.7852-0.4375-3.2656-0.29297-0.48828-0.8125-0.73438-1.5625-0.73438-0.9375 0-1.6641 0.38672-2.1719 1.1562-0.51172 0.76172-0.76562 1.8594-0.76562 3.2969v7.5312h-4.9219v-15.312h4.9219v2.2344c0.60156-0.86328 1.2891-1.5156 2.0625-1.9531 0.78125-0.4375 1.6406-0.65625 2.5781-0.65625 1.0625 0 2 0.25781 2.8125 0.76562 0.8125 0.51172 1.4258 1.2305 1.8438 2.1562z"
         id="path239" />
    </symbol>
    <symbol
       id="r"
       overflow="visible">
      <path
         d="m17.75-9.3281v9.3281h-4.9219v-7.1094c0-1.3438-0.03125-2.2656-0.09375-2.7656s-0.16797-0.86719-0.3125-1.1094c-0.1875-0.3125-0.44922-0.55469-0.78125-0.73438-0.32422-0.17578-0.69531-0.26562-1.1094-0.26562-1.0234 0-1.8242 0.39844-2.4062 1.1875-0.58594 0.78125-0.875 1.8711-0.875 3.2656v7.5312h-4.8906v-21.281h4.8906v8.2031c0.73828-0.88281 1.5195-1.5391 2.3438-1.9688 0.83203-0.42578 1.75-0.64062 2.75-0.64062 1.7695 0 3.1133 0.54688 4.0312 1.6406 0.91406 1.0859 1.375 2.6562 1.375 4.7188z"
         id="path242" />
    </symbol>
    <symbol
       id="q"
       overflow="visible">
      <path
         d="m2.5781-20.406h5.875l7.4219 14v-14h4.9844v20.406h-5.875l-7.4219-14v14h-4.9844z"
         id="path245" />
    </symbol>
    <symbol
       id="p"
       overflow="visible">
      <path
         d="m2.1875-5.9688v-9.3438h4.9219v1.5312c0 0.83594-0.007813 1.875-0.015625 3.125-0.011719 1.25-0.015625 2.0859-0.015625 2.5 0 1.2422 0.03125 2.1328 0.09375 2.6719 0.070313 0.54297 0.17969 0.93359 0.32812 1.1719 0.20703 0.32422 0.47266 0.57422 0.79688 0.75 0.32031 0.16797 0.69141 0.25 1.1094 0.25 1.0195 0 1.8203-0.39062 2.4062-1.1719 0.58203-0.78125 0.875-1.8672 0.875-3.2656v-7.5625h4.8906v15.312h-4.8906v-2.2188c-0.74219 0.89844-1.5234 1.5586-2.3438 1.9844-0.82422 0.41406-1.7344 0.625-2.7344 0.625-1.7617 0-3.1055-0.53906-4.0312-1.625-0.92969-1.082-1.3906-2.6602-1.3906-4.7344z"
         id="path248" />
    </symbol>
    <symbol
       id="o"
       overflow="visible">
      <path
         d="m17.75-9.3281v9.3281h-4.9219v-7.1406c0-1.3203-0.03125-2.2344-0.09375-2.7344s-0.16797-0.86719-0.3125-1.1094c-0.1875-0.3125-0.44922-0.55469-0.78125-0.73438-0.32422-0.17578-0.69531-0.26562-1.1094-0.26562-1.0234 0-1.8242 0.39844-2.4062 1.1875-0.58594 0.78125-0.875 1.8711-0.875 3.2656v7.5312h-4.8906v-15.312h4.8906v2.2344c0.73828-0.88281 1.5195-1.5391 2.3438-1.9688 0.83203-0.42578 1.75-0.64062 2.75-0.64062 1.7695 0 3.1133 0.54688 4.0312 1.6406 0.91406 1.0859 1.375 2.6562 1.375 4.7188z"
         id="path251" />
    </symbol>
    <symbol
       id="n"
       overflow="visible">
      <path
         d="m2.5781-20.406h8.7344c2.5938 0 4.582 0.57812 5.9688 1.7344 1.3945 1.1484 2.0938 2.7891 2.0938 4.9219 0 2.1367-0.69922 3.7812-2.0938 4.9375-1.3867 1.1562-3.375 1.7344-5.9688 1.7344h-3.4844v7.0781h-5.25zm5.25 3.8125v5.7031h2.9219c1.0195 0 1.8047-0.25 2.3594-0.75 0.5625-0.5 0.84375-1.2031 0.84375-2.1094 0-0.91406-0.28125-1.6172-0.84375-2.1094-0.55469-0.48828-1.3398-0.73438-2.3594-0.73438z"
         id="path254" />
    </symbol>
    <symbol
       id="m"
       overflow="visible">
      <path
         d="m2.3594-15.312h4.8906v15.031c0 2.0508-0.49609 3.6172-1.4844 4.7031-0.98047 1.082-2.4062 1.625-4.2812 1.625h-2.4219v-3.2188h0.85938c0.92578 0 1.5625-0.21094 1.9062-0.625 0.35156-0.41797 0.53125-1.2461 0.53125-2.4844zm0-5.9688h4.8906v4h-4.8906z"
         id="path257" />
    </symbol>
    <symbol
       id="l"
       overflow="visible">
      <path
         d="m14.719-14.828v3.9844c-0.65625-0.45703-1.3242-0.79688-2-1.0156-0.66797-0.21875-1.3594-0.32812-2.0781-0.32812-1.3672 0-2.4336 0.40234-3.2031 1.2031-0.76172 0.79297-1.1406 1.9062-1.1406 3.3438 0 1.4297 0.37891 2.543 1.1406 3.3438 0.76953 0.79297 1.8359 1.1875 3.2031 1.1875 0.75781 0 1.4844-0.10938 2.1719-0.32812 0.6875-0.22656 1.3203-0.56641 1.9062-1.0156v4c-0.76172 0.28125-1.5391 0.48828-2.3281 0.625-0.78125 0.14453-1.5742 0.21875-2.375 0.21875-2.7617 0-4.9219-0.70703-6.4844-2.125-1.5547-1.4141-2.3281-3.3828-2.3281-5.9062 0-2.5312 0.77344-4.5039 2.3281-5.9219 1.5625-1.4141 3.7227-2.125 6.4844-2.125 0.80078 0 1.5938 0.074219 2.375 0.21875 0.78125 0.13672 1.5547 0.35156 2.3281 0.64062z"
         id="path260" />
    </symbol>
  </defs>
  <g
     id="g347"
     transform="matrix(0.18117844,0,0,0.1464858,-36.005797,0.00343198)">
    <path
       d="m 341.01288,90.029738 c -0.53021,-0.44507 -1.30174,-0.700916 -2.10987,-0.700916 h -29.17997 c -0.0969,-0.198546 -0.21026,-0.393082 -0.35835,-0.575653 l 1.93252,-2.181344 c 0.23403,0.0293 0.46622,0.04531 0.70025,0.04531 h 0.007 c 2.68397,-0.05197 5.00577,-1.580378 6.42115,-3.701921 0.69477,-1.074007 1.04032,-2.173361 1.04032,-3.199405 0.005,-1.161951 -0.47717,-2.321275 -1.61986,-3.078135 l 1.57601,-3.047502 c 0.0256,0 0.0494,0.004 0.0731,0.004 1.50468,-0.008 2.81558,-0.584967 3.84861,-1.388494 1.0385,-0.81417 1.83929,-1.902845 2.29634,-3.159425 0.2523,-0.696925 0.37298,-1.387163 0.37298,-2.045438 -0.002,-0.995412 -0.2706,-1.928157 -0.83921,-2.713025 -0.41869,-0.582306 -1.04581,-1.100684 -1.86125,-1.424482 l 0.72403,-2.947551 c 1.33651,-0.163902 2.4536,-0.79285 3.27085,-1.587031 0.95988,-0.938101 1.60344,-2.162683 1.82464,-3.533744 0.053,-0.32647 0.0768,-0.648928 0.0768,-0.960753 -0.005,-1.233929 -0.37663,-2.373228 -1.10431,-3.295365 -0.53386,-0.682256 -1.32369,-1.273908 -2.32746,-1.581708 l 0.22488,-2.541131 c 1.19207,-0.251848 2.16837,-0.876802 2.86132,-1.637688 0.91232,-0.996742 1.46082,-2.286615 1.5431,-3.708403 0.007,-0.119926 0.011,-0.238523 0.011,-0.357127 -0.002,-1.367173 -0.44611,-2.625082 -1.26518,-3.616639 -0.56311,-0.683587 -1.37124,-1.265892 -2.37132,-1.580378 l -0.004,-2.329257 h 3.18675 V 19.338769 l -41.85002,-0.0013 c 4.19965,-1.806921 7.01323,-5.137047 7.01323,-8.947789 0,-5.7364082 -6.37903,-10.385642 -14.24972,-10.385642 -7.86882,0 -14.24971,4.6492338 -14.24971,10.385642 0,3.811083 2.81741,7.141175 7.01322,8.947789 H 231.7926 V 33.18522 h 3.18492 v 2.330587 c -1.0019,0.311812 -1.81186,0.895461 -2.37496,1.581709 -0.82091,0.99275 -1.26336,2.247965 -1.26518,3.616639 0,0.118597 0.002,0.238524 0.011,0.357127 0.0859,1.421822 0.63079,2.709034 1.54311,3.708402 0.69477,0.760887 1.67289,1.387164 2.86131,1.637688 l 0.22488,2.541131 c -1.00372,0.307814 -1.79538,0.899452 -2.32928,1.581708 -0.72585,0.920773 -1.09884,2.061437 -1.10066,3.295365 0,0.31581 0.0256,0.635624 0.0768,0.960754 0.2194,1.371163 0.86482,2.595779 1.82464,3.533744 0.81726,0.796841 1.93435,1.424483 3.27451,1.589725 l 0.72037,2.947552 c -0.81178,0.32247 -1.44069,0.842176 -1.85758,1.424481 -0.56859,0.787529 -0.83921,1.717648 -0.83921,2.713026 0,0.660936 0.12066,1.351174 0.37297,2.045438 0.45526,1.256578 1.25788,2.345254 2.29269,3.159425 1.03298,0.804857 2.34024,1.380511 3.84862,1.388493 0.0238,0 0.0494,-0.0013 0.0731,-0.0013 l 1.57236,3.047505 c -1.14269,0.756891 -1.62169,1.913523 -1.61987,3.078134 0,1.026045 0.34921,2.126729 1.04398,3.199406 1.4151,2.118711 3.73708,3.646999 6.41928,3.701921 0.23585,0 0.4717,-0.01866 0.70755,-0.04797 l 1.93252,2.180015 c -0.14992,0.183888 -0.26145,0.378444 -0.35835,0.57698 h -29.17997 c -0.80996,0 -1.57966,0.255847 -2.10987,0.70092 -0.5302,0.44507 -0.7697,1.036723 -0.65451,1.621689 l 5.58568,28.778576 c 0.1938,1.00339 1.37306,1.74961 2.76438,1.74961 h 46.10645 v 68.85332 h 12.66819 v -68.8567 h 46.10458 c 1.39136,0 2.56878,-0.74754 2.76808,-1.7496 l 5.58568,-28.778583 c 0.1097,-0.58497 -0.12615,-1.175289 -0.65817,-1.620358 z m -48.28382,3.84963 c 0.0969,-0.166567 0.20478,-0.32647 0.3163,-0.479695 h 3.08252 c 0.0768,0.02531 0.1554,0.04797 0.23768,0.06263 0.11335,0.02132 0.22854,0.03064 0.34006,0.03064 0.19746,0 0.38578,-0.03598 0.56128,-0.09195 h 0.0549 c -0.0475,0.238524 -0.0786,0.477034 -0.0804,0.712889 -0.002,0.393083 0.0768,0.788859 0.23585,1.167306 -0.0201,0.03465 -0.0347,0.06663 -0.0549,0.101274 -0.0109,0.02132 -0.0256,0.03998 -0.0402,0.06129 l -1.42245,0.57566 c -0.0292,-0.247854 -0.17369,-0.490379 -0.44793,-0.67295 -0.56859,-0.379777 -1.4517,-0.351771 -1.9746,0.06263 l -1.45535,1.159289 c -0.0256,-0.146575 -0.042,-0.298488 -0.042,-0.462397 0,-0.662268 0.21756,-1.445804 0.68929,-2.226647 m 7.91282,-13.691855 c 0.0676,0.008 0.13895,0.012 0.20477,0.012 0.68194,0 1.27618,-0.365109 1.37854,-0.87148 l 0.14443,-0.716915 c 0.33276,0.467721 0.56311,1.144655 0.56129,1.920176 0,0.370431 -0.053,0.762216 -0.15541,1.163314 -0.26511,1.000734 -0.83369,1.860206 -1.48095,2.41853 -0.12798,0.110601 -0.25962,0.206543 -0.38212,0.290491 l 0.21757,-0.638284 c 0.18649,-0.546351 -0.26693,-1.098024 -1.01655,-1.233929 -0.7478,-0.135919 -1.50468,0.197213 -1.69303,0.740896 l -0.27607,0.802197 c -0.33092,-0.470381 -0.55763,-1.144655 -0.55763,-1.917515 0,-0.3691 0.053,-0.762216 0.15723,-1.16195 0.26145,-1.003394 0.83004,-1.860206 1.47913,-2.419895 0.13164,-0.114598 0.26511,-0.21054 0.39308,-0.298486 l -0.1554,0.758225 c -0.1097,0.554333 0.41868,1.072678 1.18107,1.152638 z M 300.46092,67.58826 c 0.13713,-1.056713 0.62709,-1.978816 1.23228,-2.578451 0.12615,-0.123925 0.25231,-0.227863 0.3748,-0.321141 l -0.0622,0.727558 c -0.053,0.559654 0.53203,1.044704 1.29991,1.080693 0.0311,0.0013 0.0603,0.0013 0.0914,0.0013 0.72949,0 1.34381,-0.413072 1.39136,-0.95144 l 0.053,-0.564977 0.002,0.0013 c 0.44611,0.550343 0.76241,1.392485 0.76058,2.347916 0,0.201212 -0.0164,0.40509 -0.042,0.615634 -0.13895,1.054018 -0.62896,1.977485 -1.2341,2.574459 -0.13347,0.133251 -0.27059,0.245186 -0.4004,0.343789 l 0.13712,-0.675604 c 0.1097,-0.555663 -0.41685,-1.074008 -1.17924,-1.153968 -0.76241,-0.08262 -1.47361,0.303816 -1.58332,0.859472 l -0.12798,0.638285 c -0.44245,-0.550342 -0.75145,-1.387163 -0.74962,-2.331917 -0.009,-0.195883 0.005,-0.402429 0.0366,-0.612973 m 1.29991,-13.463982 c 0.0585,-1.084685 0.4973,-2.042777 1.07141,-2.665063 0.0841,-0.08928 0.1682,-0.170564 0.25413,-0.245186 l -0.0292,0.91279 c -0.0165,0.560986 0.59966,1.026046 1.36759,1.036723 h 0.0293 c 0.75693,0 1.37854,-0.441079 1.39684,-0.996742 l 0.0238,-0.878132 c 0.0494,0.05196 0.0987,0.101274 0.14992,0.15857 0.50278,0.599634 0.86481,1.524433 0.86299,2.561121 0,0.08795 -0.002,0.177226 -0.007,0.26917 -0.0585,1.079363 -0.4973,2.038786 -1.07141,2.661072 -0.0896,0.09728 -0.18101,0.181224 -0.27242,0.259844 l 0.0768,-0.864828 c 0.053,-0.559654 -0.53203,-1.044704 -1.29991,-1.080693 -0.76971,-0.03598 -1.43705,0.38909 -1.48278,0.948745 l -0.0804,0.89014 c -0.0439,-0.04531 -0.0859,-0.08928 -0.13164,-0.143913 -0.50278,-0.599634 -0.86482,-1.523068 -0.86299,-2.56112 -0.002,-0.07862 0,-0.167901 0.005,-0.262509 m 0.38577,-13.268174 c 0.0165,-1.098023 0.42782,-2.074741 0.98548,-2.706374 0.0603,-0.06929 0.12249,-0.129256 0.181,-0.18922 v 0.880793 c 0,0.560985 0.62344,1.018063 1.39684,1.018063 0.76971,0 1.39684,-0.454383 1.39684,-1.018063 v -0.946084 c 0.0786,0.07595 0.16272,0.157238 0.24134,0.250517 0.5375,0.626277 0.92697,1.593716 0.92332,2.67574 v 0.09195 c -0.0164,1.084685 -0.42783,2.062768 -0.98548,2.695696 -0.0658,0.07462 -0.13347,0.141247 -0.19928,0.203879 l 0.0256,-0.875471 c 0.0165,-0.560986 -0.59784,-1.027376 -1.36759,-1.036723 -0.76971,-0.012 -1.4078,0.435723 -1.42245,0.996742 l -0.0292,0.947415 c -0.0731,-0.07196 -0.15175,-0.149243 -0.22305,-0.234525 -0.53751,-0.626277 -0.92697,-1.593716 -0.92332,-2.675741 v -0.07862 z m 1.7497,52.54395 h 1.8795 c -0.0475,0.04398 -0.0804,0.08795 -0.12799,0.131921 -0.61613,0.586331 -1.34016,1.034027 -2.03675,1.344521 z m 7.37176,-12.948197 c 0.72402,-1.163315 1.87401,-1.954834 2.82289,-2.315952 l -0.2194,0.42641 c -0.27242,0.52503 0.0951,1.113988 0.81726,1.312558 0.16272,0.04398 0.32727,0.06529 0.49365,0.06529 0.56676,0 1.09883,-0.251848 1.30726,-0.660935 l 0.10421,-0.203879 c 0.053,0.190551 0.0805,0.40243 0.0805,0.646268 0.002,0.683586 -0.24317,1.512425 -0.77518,2.330586 -0.65452,1.047365 -1.65647,1.801566 -2.54319,2.202664 l 0.27974,-0.318473 c 0.41868,-0.471713 0.23402,-1.102015 -0.41503,-1.408485 -0.64722,-0.305149 -1.51203,-0.170564 -1.92887,0.302486 l -0.671,0.754199 c -0.0768,-0.225199 -0.13163,-0.489041 -0.13163,-0.798171 0,-0.690238 0.24682,-1.517746 0.77887,-2.334612 m 6.71181,-12.869737 c 0.34372,-0.956761 0.96535,-1.76561 1.63817,-2.291971 0.10421,-0.08262 0.21025,-0.154572 0.31446,-0.223865 l -0.11335,0.461069 c -0.13347,0.554333 0.37298,1.080693 1.13174,1.180609 0.0805,0.01198 0.16272,0.01733 0.24682,0.01733 0.66551,0 1.2524,-0.345119 1.37124,-0.838152 l 0.15175,-0.611643 c 0.29436,0.413072 0.4973,1.023385 0.49547,1.728292 0,0.477033 -0.0896,0.996742 -0.2779,1.528424 -0.34555,0.956762 -0.96717,1.76561 -1.63999,2.290606 -0.22489,0.177226 -0.45159,0.31581 -0.66552,0.426411 l 0.31447,-0.608982 c 0.27242,-0.525031 -0.0951,-1.113988 -0.81726,-1.312559 -0.72402,-0.198546 -1.5248,0.06929 -1.79721,0.594313 l -0.31629,0.615635 c -0.1938,-0.38643 -0.3163,-0.876802 -0.31447,-1.428474 -0.005,-0.478364 0.0859,-0.996742 0.2779,-1.527094 m 3.28364,-13.450678 c 0.16272,-1.047365 0.67099,-1.956165 1.28165,-2.546452 0.0713,-0.06929 0.14078,-0.129257 0.21209,-0.189221 l -0.0658,0.73421 c -0.053,0.559655 0.53385,1.044705 1.30173,1.080693 0.0311,0.0013 0.0603,0.0013 0.0914,0.0013 0.7295,0 1.34381,-0.414402 1.39136,-0.95144 l 0.0768,-0.850159 c 0.0421,0.04531 0.0841,0.09328 0.12798,0.145246 0.42783,0.533012 0.7295,1.351174 0.72585,2.277302 0,0.238524 -0.0183,0.481058 -0.0585,0.727558 -0.16272,1.044704 -0.67282,1.954834 -1.28348,2.545122 -0.14627,0.141247 -0.2907,0.261174 -0.43697,0.362449 l 0.16272,-0.672944 c 0.13713,-0.554333 -0.37297,-1.080693 -1.12991,-1.18061 -0.76058,-0.09994 -1.48278,0.269171 -1.61987,0.823517 l -0.15723,0.635624 c -0.40406,-0.533013 -0.68747,-1.321871 -0.68377,-2.216002 0.007,-0.234525 0.0256,-0.477033 0.064,-0.726227 m 1.23227,-13.303993 c 0.0585,-1.083354 0.4973,-2.042777 1.07506,-2.662402 0.13713,-0.146579 0.27242,-0.271838 0.41137,-0.375787 v 1.054018 c 0,0.560985 0.62344,1.018062 1.39685,1.018062 0.7697,0 1.39501,-0.454382 1.39501,-1.018062 v -0.668918 c 0.49548,0.599635 0.85199,1.512425 0.84651,2.541131 0,0.08928 -0.002,0.181224 -0.007,0.271838 -0.0585,1.083354 -0.4973,2.040116 -1.07506,2.662402 -0.10421,0.114599 -0.21208,0.211871 -0.31995,0.302485 l 0.0786,-0.902113 c 0.053,-0.559655 -0.53203,-1.044705 -1.30174,-1.079364 -0.76788,-0.03864 -1.43339,0.387761 -1.48095,0.948746 l -0.0768,0.838151 c -0.0293,-0.03196 -0.0585,-0.06263 -0.0896,-0.09728 -0.50278,-0.598304 -0.86482,-1.520407 -0.85929,-2.55846 0,-0.08395 0.002,-0.173228 0.007,-0.26784 m 1.48643,-5.412678 c -1.13539,0.267839 -2.06601,0.878131 -2.73331,1.612375 -0.91232,0.996742 -1.45717,2.285286 -1.54311,3.705674 -0.007,0.118596 -0.0109,0.238524 -0.0109,0.359788 0.002,1.367173 0.44611,2.622422 1.26518,3.616639 0.53933,0.656945 1.30726,1.22059 2.25066,1.541728 l -0.23403,2.629074 c -1.06958,0.254512 -1.97642,0.804857 -2.67115,1.479097 -0.95987,0.938102 -1.60161,2.160022 -1.82098,3.533745 -0.053,0.325136 -0.0768,0.647598 -0.0768,0.960754 0.002,1.233927 0.3748,2.373227 1.10066,3.295364 0.43331,0.551672 1.03481,1.039383 1.77713,1.369834 l -0.75145,3.0635 c -1.13722,0.177226 -2.13912,0.670248 -2.96368,1.313888 -1.0385,0.814171 -1.83746,1.902847 -2.29634,3.159426 -0.2523,0.695594 -0.37297,1.384503 -0.37297,2.045438 0.002,0.995411 0.27059,1.925497 0.83921,2.713025 0.27241,0.379778 0.63443,0.730219 1.07688,1.018063 l -1.56319,3.043509 c -0.0311,0 -0.0603,-0.004 -0.0914,-0.004 -2.68215,0.0533 -5.00577,1.580378 -6.42115,3.701922 -0.69477,1.071347 -1.04033,2.17203 -1.04033,3.199406 -0.005,1.004724 0.35835,2.008118 1.19207,2.750344 l -1.71862,1.941496 c -0.45525,-0.106602 -0.92697,-0.15857 -1.39684,-0.15857 -1.97825,0.02133 -3.94916,0.776852 -5.58381,2.013441 h -0.969 l 0.83003,-2.427877 c 1.34747,-0.127923 2.49198,-0.710229 3.37875,-1.476437 1.00373,-0.87281 1.73688,-2.028107 2.08609,-3.343326 0.13895,-0.525031 0.20477,-1.044706 0.20477,-1.54572 -0.002,-1.106005 -0.31448,-2.13205 -0.95623,-2.983543 -0.43696,-0.586327 -1.08053,-1.102014 -1.89414,-1.428474 l 0.56129,-2.798307 c 1.28895,-0.190551 2.36766,-0.81417 3.15019,-1.599038 0.94705,-0.952771 1.57054,-2.193351 1.75701,-3.580479 0.0366,-0.274503 0.0548,-0.545021 0.0548,-0.81018 -0.002,-1.268587 -0.39126,-2.435858 -1.1427,-3.375291 -0.51377,-0.646267 -1.25605,-1.203261 -2.18302,-1.524433 l 0.24317,-2.730351 c 1.17194,-0.255846 2.13364,-0.878132 2.81741,-1.631005 0.91232,-0.999403 1.45717,-2.287945 1.54128,-3.709767 0.007,-0.118593 0.011,-0.234526 0.011,-0.351772 -0.002,-1.369833 -0.4461,-2.626412 -1.26883,-3.617662 -0.57958,-0.706237 -1.42061,-1.307202 -2.4609,-1.611046 l 0.0677,-2.453188 c 1.09514,-0.287827 1.99285,-0.902109 2.62364,-1.627006 0.88854,-1.023385 1.39502,-2.335943 1.42245,-3.776287 v -0.105269 c -0.002,-1.423152 -0.47718,-2.727694 -1.34017,-3.748315 -0.61796,-0.73554 -1.51202,-1.35653 -2.61629,-1.64833 v -2.235994 h 17.87381 l -0.002,2.234663 z M 287.21182,33.18651 h 16.10366 v 2.268036 c -1.05676,0.298488 -1.92157,0.894131 -2.53771,1.600368 -0.89037,1.023385 -1.39502,2.335944 -1.42245,3.776288 0,0.02133 -0.002,0.05596 -0.002,0.105269 0.005,1.423151 0.479,2.727693 1.34199,3.748314 0.59966,0.714255 1.46812,1.320541 2.52853,1.621689 l -0.0658,2.435859 c -1.09332,0.2785 -1.99468,0.875471 -2.64555,1.589724 -0.91232,0.996742 -1.45717,2.286616 -1.54128,3.709768 -0.005,0.113265 -0.0109,0.230528 -0.0109,0.351771 0.002,1.369833 0.4461,2.625082 1.26518,3.620392 0.55033,0.666257 1.33468,1.236589 2.2982,1.553736 l -0.24316,2.699721 c -1.15917,0.238523 -2.12817,0.824847 -2.84849,1.549744 -0.94705,0.952771 -1.57054,2.193352 -1.75701,3.581845 -0.0365,0.271838 -0.0548,0.542325 -0.0548,0.810179 0.002,1.265892 0.39126,2.433198 1.14269,3.375292 0.46074,0.580975 1.10614,1.093997 1.90875,1.427143 l -0.56858,2.832965 c -1.19025,0.189221 -2.21776,0.730219 -3.02219,1.427143 -1.00373,0.875471 -1.73323,2.028109 -2.08426,3.344658 -0.13713,0.523701 -0.20477,1.043375 -0.20477,1.54572 0.002,1.106005 0.31629,2.13205 0.95622,2.982209 0.38212,0.510362 0.91779,0.968736 1.58514,1.293899 l -0.9617,2.806324 c -0.27974,0.01334 -0.55581,0.0453 -0.82639,0.08928 h -8.33687 z m 2.78269,60.212507 c -0.49,0.915451 -0.7441,1.836224 -0.7441,2.705039 0,0.774189 0.18831,1.511095 0.62161,2.160024 0.011,0.01471 0.0201,0.02664 0.0292,0.04001 l -0.41137,0.329135 c -0.16821,0.08929 -0.30715,0.198547 -0.40405,0.322469 l -1.8722,1.492436 v -7.049066 z m -18.23374,0 h 2.78268 v 7.053163 l -1.87219,-1.492441 c -0.0987,-0.126587 -0.23585,-0.237187 -0.40954,-0.325133 l -0.41503,-0.330472 c 0.007,-0.01337 0.0201,-0.02665 0.0293,-0.04002 0.43331,-0.651623 0.62344,-1.388491 0.62344,-2.16268 0.004,-0.864828 -0.25048,-1.788261 -0.73863,-2.702381 z m -2.73331,0.481059 c 0.4717,0.779545 0.68747,1.563049 0.68378,2.22398 0,0.163899 -0.0164,0.31714 -0.042,0.462397 l -1.45535,-1.159284 c -0.51925,-0.414402 -1.40232,-0.443739 -1.97091,-0.06529 -0.27241,0.181219 -0.41868,0.423744 -0.4461,0.672935 l -1.42245,-0.575645 c -0.0128,-0.02132 -0.0256,-0.03998 -0.0402,-0.06129 -0.0201,-0.03598 -0.0347,-0.0693 -0.0548,-0.102605 0.15724,-0.378448 0.23585,-0.771529 0.23402,-1.164645 0,-0.234526 -0.0347,-0.474373 -0.0786,-0.71289 h 0.0548 c 0.17551,0.0573 0.36383,0.09328 0.56128,0.09328 0.1097,0 0.22488,-0.0094 0.33824,-0.03064 0.0841,-0.01467 0.16272,-0.03864 0.23768,-0.06263 h 3.08251 c 0.11336,0.153242 0.22123,0.314479 0.31813,0.482389 z m -11.17651,-0.481059 0.28522,1.475105 c -0.70025,-0.313145 -1.41875,-0.758225 -2.03311,-1.344521 -0.0475,-0.04264 -0.0804,-0.08795 -0.12615,-0.131921 l 1.87401,-0.0013 z m 2.77356,-9.634137 0.2194,0.639614 c -0.12799,-0.08662 -0.25597,-0.17989 -0.38578,-0.291824 -0.65087,-0.558324 -1.2195,-1.415136 -1.47912,-2.41853 -0.10787,-0.401099 -0.15541,-0.79418 -0.15541,-1.163315 -0.002,-0.779545 0.22488,-1.455115 0.55763,-1.924167 l 0.14444,0.718246 c 0.10238,0.50637 0.70024,0.871479 1.37854,0.871479 0.0677,0 0.13712,-0.004 0.20477,-0.01197 0.7624,-0.07995 1.29261,-0.598304 1.17925,-1.153968 l -0.15175,-0.756894 c 0.13163,0.08662 0.26144,0.183888 0.39308,0.298486 0.64722,0.558324 1.2195,1.415135 1.47913,2.41853 0.10421,0.399767 0.1554,0.791519 0.1554,1.16195 0.002,0.77419 -0.22854,1.448464 -0.5558,1.916184 L 263.332,83.268038 c -0.18649,-0.546351 -0.94339,-0.876801 -1.69302,-0.740896 -0.74597,0.139917 -1.2012,0.692899 -1.01473,1.23792 z m -2.92895,-13.573144 0.13712,0.675604 c -0.13347,-0.09994 -0.27058,-0.210541 -0.40405,-0.345119 -0.60336,-0.598305 -1.09514,-1.520408 -1.23228,-2.577119 -0.0292,-0.210541 -0.042,-0.414404 -0.042,-0.612974 -0.002,-0.952771 0.31447,-1.797574 0.76058,-2.347915 0,-0.0013 0.002,-0.0013 0.002,-0.004 l 0.053,0.567671 c 0.0494,0.538334 0.66004,0.951441 1.39137,0.951441 0.0311,0 0.0603,0 0.0914,-0.0013 0.76788,-0.03597 1.35294,-0.521005 1.30174,-1.080694 l -0.0658,-0.727557 c 0.12615,0.09328 0.24865,0.198546 0.3748,0.321141 0.59966,0.598305 1.09514,1.520408 1.23227,2.578451 0.0293,0.206542 0.0402,0.410411 0.0402,0.612973 0.002,0.946084 -0.30716,1.782939 -0.74963,2.331917 l -0.12798,-0.635624 c -0.1097,-0.555664 -0.81726,-0.942093 -1.58331,-0.859473 -0.76241,0.08128 -1.29078,0.596975 -1.17925,1.152638 z M 256.2144,57.202469 c -0.0914,-0.07862 -0.181,-0.162567 -0.27242,-0.259844 -0.57411,-0.622285 -1.01473,-1.580378 -1.07141,-2.665063 -0.005,-0.09194 -0.007,-0.179889 -0.007,-0.265172 -0.002,-1.039383 0.35652,-1.964147 0.86299,-2.563782 0.0494,-0.0573 0.0987,-0.109266 0.14992,-0.159903 l 0.0238,0.880792 c 0.0164,0.555664 0.63991,0.996742 1.39684,0.996742 h 0.0292 c 0.7697,-0.012 1.38402,-0.477034 1.36759,-1.036722 l -0.0256,-0.91279 c 0.0841,0.07462 0.16454,0.154571 0.2523,0.245185 0.57411,0.620956 1.01473,1.580378 1.07506,2.665063 0.002,0.08928 0.005,0.177226 0.005,0.26784 0.002,1.036722 -0.35835,1.961486 -0.86481,2.561121 -0.042,0.05197 -0.0859,0.09594 -0.12799,0.141248 l -0.0786,-0.89014 c -0.053,-0.559654 -0.71485,-0.986065 -1.48278,-0.948745 -0.7697,0.03864 -1.35476,0.521004 -1.30173,1.080693 z m -0.54668,-13.385181 c -0.0658,-0.06263 -0.13347,-0.131921 -0.20112,-0.206542 -0.55763,-0.632964 -0.969,-1.608351 -0.98365,-2.706374 v -0.07995 c -0.002,-1.083354 0.38212,-2.049429 0.92332,-2.675739 0.0804,-0.09328 0.16272,-0.175893 0.24317,-0.251849 v 0.947415 c 0,0.559655 0.62709,1.016732 1.39684,1.016732 0.7697,0 1.39684,-0.457044 1.39684,-1.016732 v -0.882123 c 0.0603,0.05863 0.12067,0.118597 0.181,0.186553 0.55764,0.634293 0.969,1.611045 0.98548,2.709034 v 0.07862 c 0.002,1.083354 -0.38212,2.049429 -0.92332,2.675739 -0.0731,0.08662 -0.14992,0.162569 -0.22305,0.234526 l -0.0256,-0.948745 c -0.0165,-0.560985 -0.6527,-1.007385 -1.42245,-0.995411 -0.7697,0.012 -1.38402,0.477033 -1.36759,1.036722 z m 11.08337,36.794068 c -0.3492,-1.316549 -1.08053,-2.470517 -2.08426,-3.344658 -0.80813,-0.696923 -1.83199,-1.237919 -3.02036,-1.427142 l -0.56859,-2.832966 c 0.79896,-0.330468 1.44435,-0.844838 1.9051,-1.427143 0.75145,-0.939433 1.14087,-2.1094 1.14269,-3.375291 0,-0.265173 -0.0165,-0.534344 -0.0548,-0.807519 -0.18649,-1.387163 -0.80813,-2.629073 -1.757,-3.581845 -0.72038,-0.722235 -1.6912,-1.309863 -2.8485,-1.549744 l -0.24133,-2.699722 c 0.96535,-0.318473 1.74788,-0.888808 2.29633,-1.553735 0.82274,-0.992751 1.26336,-2.247966 1.26884,-3.617663 0,-0.115928 -0.002,-0.233191 -0.007,-0.34911 -0.0841,-1.423152 -0.63078,-2.713026 -1.54128,-3.709768 -0.65269,-0.714253 -1.55223,-1.309863 -2.64554,-1.589724 l -0.0677,-2.43719 c 1.06588,-0.302485 1.92705,-0.907468 2.52671,-1.620358 0.86481,-1.022053 1.33651,-2.325265 1.34199,-3.748314 v -0.09728 -0.0053 c -0.0293,-1.43915 -0.53386,-2.753006 -1.42245,-3.776287 -0.61249,-0.706238 -1.47912,-1.303211 -2.53406,-1.600368 v -2.271955 h 16.10553 v 56.142755 h -8.34249 c -0.27059,-0.04398 -0.54302,-0.07595 -0.8209,-0.08928 l -0.9617,-2.806325 c 0.66917,-0.325136 1.20302,-0.783536 1.58331,-1.293898 0.63991,-0.850159 0.9544,-1.876205 0.95622,-2.982209 0,-0.505041 -0.0695,-1.022055 -0.20843,-1.547085 m -31.29695,-37.561607 0.0786,0.902113 c -0.10787,-0.08928 -0.21574,-0.186556 -0.32178,-0.302484 -0.57411,-0.620956 -1.01473,-1.580378 -1.07506,-2.662402 -0.002,-0.09195 -0.007,-0.183889 -0.007,-0.271839 -0.002,-1.030036 0.35103,-1.944156 0.84833,-2.545122 v 0.672944 c 0,0.560985 0.62344,1.016731 1.39502,1.016731 0.7697,0 1.39684,-0.454381 1.39684,-1.016731 V 37.79243 c 0.13713,0.105269 0.27242,0.229197 0.41137,0.375786 0.57411,0.620956 1.01473,1.580379 1.07689,2.662402 0.002,0.08928 0.005,0.181225 0.005,0.271838 0.002,1.036723 -0.35652,1.960156 -0.86298,2.559791 -0.0293,0.03465 -0.0585,0.06263 -0.0896,0.09328 l -0.0731,-0.83682 c -0.0494,-0.560986 -0.71485,-0.987396 -1.48278,-0.951441 -0.76788,0.03731 -1.35294,0.522335 -1.29991,1.083354 z m 2.63277,12.567157 c -0.76058,0.09994 -1.26335,0.626277 -1.12991,1.18061 l 0.16454,0.674274 c -0.14626,-0.101274 -0.29436,-0.221202 -0.44062,-0.362449 -0.61249,-0.590322 -1.11892,-1.499087 -1.28348,-2.546452 -0.0402,-0.24652 -0.0585,-0.490372 -0.0585,-0.727559 -0.002,-0.926094 0.29802,-1.741628 0.72585,-2.277301 0.0439,-0.0533 0.0859,-0.101275 0.13164,-0.14658 l 0.0768,0.851489 c 0.0475,0.538335 0.66004,0.952771 1.39136,0.952771 0.0311,0 0.0603,0 0.0914,-0.0013 0.76788,-0.03598 1.35294,-0.519675 1.30173,-1.080694 l -0.0658,-0.731549 c 0.0676,0.0573 0.13895,0.118596 0.21025,0.186555 0.61249,0.590323 1.12257,1.501748 1.28713,2.546454 0.0402,0.246519 0.0549,0.489041 0.0549,0.726227 0.002,0.89413 -0.2779,1.682989 -0.68194,2.216002 l -0.15724,-0.635624 c -0.13347,-0.554333 -0.85746,-0.923433 -1.61804,-0.824848 z m 5.65121,14.918893 -0.31447,-0.612973 c -0.27242,-0.52503 -1.07689,-0.792849 -1.80091,-0.594313 -0.72402,0.198547 -1.08784,0.784867 -0.81543,1.312558 l 0.31447,0.611643 c -0.21757,-0.110601 -0.44062,-0.247851 -0.66552,-0.42641 -0.67647,-0.52503 -1.29808,-1.333879 -1.63999,-2.291971 -0.19197,-0.529022 -0.27973,-1.050026 -0.27973,-1.528425 0,-0.706237 0.20111,-1.316549 0.49547,-1.730951 l 0.14992,0.612973 c 0.12067,0.493032 0.7112,0.838152 1.37307,0.838152 0.0804,0 0.16272,-0.0053 0.24682,-0.01733 0.76058,-0.09994 1.26335,-0.626277 1.12991,-1.18061 l -0.11335,-0.463729 c 0.10421,0.06929 0.21025,0.139916 0.31447,0.223865 0.67282,0.527691 1.29808,1.335209 1.63999,2.294632 0.19197,0.529021 0.2779,1.048695 0.2779,1.525763 0.005,0.550342 -0.11884,1.040714 -0.31264,1.427143 z m 7.39001,13.045418 -0.66552,-0.7542 c -0.41685,-0.471711 -1.28166,-0.607617 -1.92887,-0.302485 -0.64722,0.305149 -0.83369,0.934111 -0.41503,1.408484 l 0.28522,0.32114 c -0.88854,-0.401097 -1.89232,-1.155297 -2.54684,-2.203994 -0.53203,-0.81816 -0.77518,-1.644339 -0.77518,-2.330586 0,-0.241188 0.0311,-0.454383 0.0805,-0.646267 l 0.10787,0.206543 c 0.21025,0.409081 0.74228,0.660935 1.30726,0.660935 0.16272,0 0.32726,-0.02132 0.49365,-0.06662 0.72037,-0.197212 1.08783,-0.783536 0.81543,-1.309863 l -0.22488,-0.427741 c 0.94887,0.361119 2.09708,1.153969 2.82476,2.315953 0.5302,0.8155 0.77335,1.643009 0.77335,2.329256 -0.002,0.310481 -0.0512,0.571662 -0.13164,0.799536 z m -4.65336,-16.51678 c -0.45891,-1.256579 -1.26153,-2.345255 -2.29634,-3.159425 -0.82273,-0.643607 -1.82646,-1.135308 -2.96368,-1.313889 l -0.74962,-3.063501 c 0.74227,-0.331801 1.34198,-0.819492 1.7753,-1.371163 0.72585,-0.920773 1.09884,-2.061437 1.10066,-3.295365 0,-0.313145 -0.0256,-0.634294 -0.0768,-0.959423 -0.2194,-1.373825 -0.86482,-2.598441 -1.82464,-3.536474 -0.69112,-0.672944 -1.59614,-1.224582 -2.6675,-1.479097 l -0.23585,-2.630404 c 0.94704,-0.321142 1.71127,-0.884818 2.25065,-1.541729 0.82091,-0.99275 1.26336,-2.247965 1.26883,-3.616639 0,-0.115929 -0.002,-0.234525 -0.011,-0.355796 -0.0859,-1.423153 -0.63444,-2.710365 -1.54311,-3.709767 -0.66917,-0.731549 -1.59979,-1.341862 -2.73148,-1.609715 v -2.234662 h 17.87522 v 2.237323 c -1.10067,0.29049 -1.99651,0.91545 -2.61817,1.650991 -0.86481,1.022053 -1.33651,2.325265 -1.34016,3.748314 v 0.105269 c 0.0256,1.439151 0.53203,2.750345 1.42062,3.774923 0.63079,0.727558 1.52845,1.3392 2.62546,1.62967 l 0.0676,2.450528 c -1.04398,0.303815 -1.88497,0.903444 -2.46638,1.611046 -0.82091,0.992751 -1.26335,2.250659 -1.26883,3.620391 0,0.118596 0.002,0.234526 0.011,0.351771 0.0841,1.421822 0.62896,2.710364 1.53945,3.708403 0.68377,0.75287 1.64547,1.375156 2.82107,1.631001 l 0.24316,2.727695 c -0.92697,0.321141 -1.6729,0.878131 -2.18302,1.525762 -0.74963,0.939433 -1.13722,2.106739 -1.14269,3.375292 0,0.267839 0.0183,0.537004 0.0549,0.810179 0.18649,1.387162 0.80448,2.626413 1.75335,3.580479 0.78436,0.784868 1.85759,1.408484 3.15385,1.599038 l 0.56128,2.796978 c -0.81543,0.326469 -1.46082,0.842176 -1.89779,1.428473 -0.64174,0.85149 -0.9544,1.877534 -0.95622,2.98354 0,0.502379 0.0676,1.020723 0.20477,1.545719 0.3492,1.31655 1.08236,2.470517 2.08426,3.343327 0.88672,0.767539 2.03311,1.352505 3.38057,1.476436 l 0.83369,2.427877 h -0.97265 c -1.63635,-1.236589 -3.6036,-1.99212 -5.58381,-2.01344 -0.46622,0 -0.94158,0.04931 -1.39685,0.15857 l -1.71862,-1.941496 c 0.83556,-0.743557 1.19755,-1.74562 1.19572,-2.750344 0,-1.026046 -0.34921,-2.126729 -1.04398,-3.199406 -1.41875,-2.122738 -3.73708,-3.651093 -6.42115,-3.701922 -0.0311,0 -0.0603,0.0013 -0.0914,0.0013 l -1.57054,-3.04351 c 0.44063,-0.287826 0.80448,-0.638285 1.07689,-1.018062 0.56858,-0.787529 0.83556,-1.717648 0.83921,-2.713025 0.004,-0.658276 -0.11701,-1.347184 -0.36567,-2.042778 m -15.6136,51.042984 -4.79562,-24.7079 h 12.79081 l 4.79562,24.7079 z m 18.43687,0 -4.79749,-24.7079 h 8.2016 c 0.32544,0.474372 0.72402,0.939432 1.2012,1.387163 1.33651,1.224579 2.97833,2.10275 4.69686,2.46786 l 4.04604,20.852807 z m 18.99244,0 -3.7133,-19.125683 c 1.05858,0.63429 2.27808,1.022053 3.59629,1.048693 0.46074,0 0.92697,-0.05864 1.37672,-0.179891 l 0.93062,0.375781 1.48095,1.18062 h -1.37672 c -0.7697,0 -1.39684,0.45438 -1.39684,1.01673 0,0.56365 0.62709,1.01806 1.39684,1.01806 h 3.93085 l 0.0293,0.0226 v 14.64054 h -6.25453 z m 18.9213,0 v -14.64053 l 0.0256,-0.0226 h 3.93085 c 0.7697,0 1.39501,-0.45437 1.39501,-1.01806 0,-0.56098 -0.62343,-1.01673 -1.39501,-1.01673 h -1.37672 l 1.47913,-1.18061 0.93244,-0.374453 c 0.44611,0.118594 0.91232,0.177223 1.36577,0.177223 h 0.007 c 1.31821,-0.0293 2.53405,-0.4144 3.59264,-1.048689 l -3.71148,19.125679 h -6.24563 z m 25.24369,0 h -13.352 l 4.04604,-20.85281 c 1.7168,-0.365111 3.3568,-1.245907 4.69686,-2.467859 0.47718,-0.4464 0.87577,-0.915452 1.20303,-1.388493 h 8.2016 z m 18.435,0 h -12.79081 l 4.79375,-24.7079 h 12.7927 z"
       id="path265"
       style="stroke-width:0.39958" />
  </g>
</svg>
